G04 #@! TF.GenerationSoftware,KiCad,Pcbnew,(5.1.5-0-10_14)*
G04 #@! TF.CreationDate,2020-01-20T13:36:02-08:00*
G04 #@! TF.ProjectId,SpectrumAnayzerMini,53706563-7472-4756-9d41-6e61797a6572,rev?*
G04 #@! TF.SameCoordinates,Original*
G04 #@! TF.FileFunction,Paste,Top*
G04 #@! TF.FilePolarity,Positive*
%FSLAX46Y46*%
G04 Gerber Fmt 4.6, Leading zero omitted, Abs format (unit mm)*
G04 Created by KiCad (PCBNEW (5.1.5-0-10_14)) date 2020-01-20 13:36:02*
%MOMM*%
%LPD*%
G04 APERTURE LIST*
%ADD10R,1.600000X0.850000*%
G04 APERTURE END LIST*
D10*
X191798000Y-127268000D03*
X191798000Y-129018000D03*
X195298000Y-127268000D03*
X195298000Y-129018000D03*
X191798000Y-122188000D03*
X191798000Y-123938000D03*
X195298000Y-122188000D03*
X195298000Y-123938000D03*
X191798000Y-117108000D03*
X191798000Y-118858000D03*
X195298000Y-117108000D03*
X195298000Y-118858000D03*
X191798000Y-112028000D03*
X191798000Y-113778000D03*
X195298000Y-112028000D03*
X195298000Y-113778000D03*
X191798000Y-106948000D03*
X191798000Y-108698000D03*
X195298000Y-106948000D03*
X195298000Y-108698000D03*
X191798000Y-101868000D03*
X191798000Y-103618000D03*
X195298000Y-101868000D03*
X195298000Y-103618000D03*
X191798000Y-96788000D03*
X191798000Y-98538000D03*
X195298000Y-96788000D03*
X195298000Y-98538000D03*
X191798000Y-91708000D03*
X191798000Y-93458000D03*
X195298000Y-91708000D03*
X195298000Y-93458000D03*
X191798000Y-86628000D03*
X191798000Y-88378000D03*
X195298000Y-86628000D03*
X195298000Y-88378000D03*
X191798000Y-81548000D03*
X191798000Y-83298000D03*
X195298000Y-81548000D03*
X195298000Y-83298000D03*
X184178000Y-127268000D03*
X184178000Y-129018000D03*
X187678000Y-127268000D03*
X187678000Y-129018000D03*
X184178000Y-122188000D03*
X184178000Y-123938000D03*
X187678000Y-122188000D03*
X187678000Y-123938000D03*
X184178000Y-117108000D03*
X184178000Y-118858000D03*
X187678000Y-117108000D03*
X187678000Y-118858000D03*
X184178000Y-112028000D03*
X184178000Y-113778000D03*
X187678000Y-112028000D03*
X187678000Y-113778000D03*
X184178000Y-106948000D03*
X184178000Y-108698000D03*
X187678000Y-106948000D03*
X187678000Y-108698000D03*
X184178000Y-101868000D03*
X184178000Y-103618000D03*
X187678000Y-101868000D03*
X187678000Y-103618000D03*
X184178000Y-96788000D03*
X184178000Y-98538000D03*
X187678000Y-96788000D03*
X187678000Y-98538000D03*
X184178000Y-91708000D03*
X184178000Y-93458000D03*
X187678000Y-91708000D03*
X187678000Y-93458000D03*
X184178000Y-86628000D03*
X184178000Y-88378000D03*
X187678000Y-86628000D03*
X187678000Y-88378000D03*
X184178000Y-81548000D03*
X184178000Y-83298000D03*
X187678000Y-81548000D03*
X187678000Y-83298000D03*
X176558000Y-127268000D03*
X176558000Y-129018000D03*
X180058000Y-127268000D03*
X180058000Y-129018000D03*
X176558000Y-122188000D03*
X176558000Y-123938000D03*
X180058000Y-122188000D03*
X180058000Y-123938000D03*
X176558000Y-117108000D03*
X176558000Y-118858000D03*
X180058000Y-117108000D03*
X180058000Y-118858000D03*
X176558000Y-112028000D03*
X176558000Y-113778000D03*
X180058000Y-112028000D03*
X180058000Y-113778000D03*
X176558000Y-106948000D03*
X176558000Y-108698000D03*
X180058000Y-106948000D03*
X180058000Y-108698000D03*
X176558000Y-101868000D03*
X176558000Y-103618000D03*
X180058000Y-101868000D03*
X180058000Y-103618000D03*
X176558000Y-96788000D03*
X176558000Y-98538000D03*
X180058000Y-96788000D03*
X180058000Y-98538000D03*
X176558000Y-91708000D03*
X176558000Y-93458000D03*
X180058000Y-91708000D03*
X180058000Y-93458000D03*
X176558000Y-86628000D03*
X176558000Y-88378000D03*
X180058000Y-86628000D03*
X180058000Y-88378000D03*
X176558000Y-81548000D03*
X176558000Y-83298000D03*
X180058000Y-81548000D03*
X180058000Y-83298000D03*
X168938000Y-127268000D03*
X168938000Y-129018000D03*
X172438000Y-127268000D03*
X172438000Y-129018000D03*
X168938000Y-122188000D03*
X168938000Y-123938000D03*
X172438000Y-122188000D03*
X172438000Y-123938000D03*
X168938000Y-117108000D03*
X168938000Y-118858000D03*
X172438000Y-117108000D03*
X172438000Y-118858000D03*
X168938000Y-112028000D03*
X168938000Y-113778000D03*
X172438000Y-112028000D03*
X172438000Y-113778000D03*
X168938000Y-106948000D03*
X168938000Y-108698000D03*
X172438000Y-106948000D03*
X172438000Y-108698000D03*
X168938000Y-101868000D03*
X168938000Y-103618000D03*
X172438000Y-101868000D03*
X172438000Y-103618000D03*
X168938000Y-96788000D03*
X168938000Y-98538000D03*
X172438000Y-96788000D03*
X172438000Y-98538000D03*
X168938000Y-91708000D03*
X168938000Y-93458000D03*
X172438000Y-91708000D03*
X172438000Y-93458000D03*
X168938000Y-86628000D03*
X168938000Y-88378000D03*
X172438000Y-86628000D03*
X172438000Y-88378000D03*
X168938000Y-81548000D03*
X168938000Y-83298000D03*
X172438000Y-81548000D03*
X172438000Y-83298000D03*
X161318000Y-127268000D03*
X161318000Y-129018000D03*
X164818000Y-127268000D03*
X164818000Y-129018000D03*
X161318000Y-122188000D03*
X161318000Y-123938000D03*
X164818000Y-122188000D03*
X164818000Y-123938000D03*
X161318000Y-117108000D03*
X161318000Y-118858000D03*
X164818000Y-117108000D03*
X164818000Y-118858000D03*
X161318000Y-112028000D03*
X161318000Y-113778000D03*
X164818000Y-112028000D03*
X164818000Y-113778000D03*
X161318000Y-106948000D03*
X161318000Y-108698000D03*
X164818000Y-106948000D03*
X164818000Y-108698000D03*
X161318000Y-101868000D03*
X161318000Y-103618000D03*
X164818000Y-101868000D03*
X164818000Y-103618000D03*
X161318000Y-96788000D03*
X161318000Y-98538000D03*
X164818000Y-96788000D03*
X164818000Y-98538000D03*
X161318000Y-91708000D03*
X161318000Y-93458000D03*
X164818000Y-91708000D03*
X164818000Y-93458000D03*
X161318000Y-86628000D03*
X161318000Y-88378000D03*
X164818000Y-86628000D03*
X164818000Y-88378000D03*
X161318000Y-81548000D03*
X161318000Y-83298000D03*
X164818000Y-81548000D03*
X164818000Y-83298000D03*
X153698000Y-127268000D03*
X153698000Y-129018000D03*
X157198000Y-127268000D03*
X157198000Y-129018000D03*
X153698000Y-122188000D03*
X153698000Y-123938000D03*
X157198000Y-122188000D03*
X157198000Y-123938000D03*
X153698000Y-117108000D03*
X153698000Y-118858000D03*
X157198000Y-117108000D03*
X157198000Y-118858000D03*
X153698000Y-112028000D03*
X153698000Y-113778000D03*
X157198000Y-112028000D03*
X157198000Y-113778000D03*
X153698000Y-106948000D03*
X153698000Y-108698000D03*
X157198000Y-106948000D03*
X157198000Y-108698000D03*
X153698000Y-101868000D03*
X153698000Y-103618000D03*
X157198000Y-101868000D03*
X157198000Y-103618000D03*
X153698000Y-96788000D03*
X153698000Y-98538000D03*
X157198000Y-96788000D03*
X157198000Y-98538000D03*
X153698000Y-91708000D03*
X153698000Y-93458000D03*
X157198000Y-91708000D03*
X157198000Y-93458000D03*
X153698000Y-86628000D03*
X153698000Y-88378000D03*
X157198000Y-86628000D03*
X157198000Y-88378000D03*
X153698000Y-81548000D03*
X153698000Y-83298000D03*
X157198000Y-81548000D03*
X157198000Y-83298000D03*
X146078000Y-127268000D03*
X146078000Y-129018000D03*
X149578000Y-127268000D03*
X149578000Y-129018000D03*
X146078000Y-122188000D03*
X146078000Y-123938000D03*
X149578000Y-122188000D03*
X149578000Y-123938000D03*
X146078000Y-117108000D03*
X146078000Y-118858000D03*
X149578000Y-117108000D03*
X149578000Y-118858000D03*
X146078000Y-112028000D03*
X146078000Y-113778000D03*
X149578000Y-112028000D03*
X149578000Y-113778000D03*
X146078000Y-106948000D03*
X146078000Y-108698000D03*
X149578000Y-106948000D03*
X149578000Y-108698000D03*
X146078000Y-101868000D03*
X146078000Y-103618000D03*
X149578000Y-101868000D03*
X149578000Y-103618000D03*
X146078000Y-96788000D03*
X146078000Y-98538000D03*
X149578000Y-96788000D03*
X149578000Y-98538000D03*
X146078000Y-91708000D03*
X146078000Y-93458000D03*
X149578000Y-91708000D03*
X149578000Y-93458000D03*
X146078000Y-86628000D03*
X146078000Y-88378000D03*
X149578000Y-86628000D03*
X149578000Y-88378000D03*
X146078000Y-81548000D03*
X146078000Y-83298000D03*
X149578000Y-81548000D03*
X149578000Y-83298000D03*
X138458000Y-127268000D03*
X138458000Y-129018000D03*
X141958000Y-127268000D03*
X141958000Y-129018000D03*
X138458000Y-122188000D03*
X138458000Y-123938000D03*
X141958000Y-122188000D03*
X141958000Y-123938000D03*
X138458000Y-117108000D03*
X138458000Y-118858000D03*
X141958000Y-117108000D03*
X141958000Y-118858000D03*
X138458000Y-112028000D03*
X138458000Y-113778000D03*
X141958000Y-112028000D03*
X141958000Y-113778000D03*
X138458000Y-106948000D03*
X138458000Y-108698000D03*
X141958000Y-106948000D03*
X141958000Y-108698000D03*
X138458000Y-101868000D03*
X138458000Y-103618000D03*
X141958000Y-101868000D03*
X141958000Y-103618000D03*
X138458000Y-96788000D03*
X138458000Y-98538000D03*
X141958000Y-96788000D03*
X141958000Y-98538000D03*
X138458000Y-91708000D03*
X138458000Y-93458000D03*
X141958000Y-91708000D03*
X141958000Y-93458000D03*
X138458000Y-86628000D03*
X138458000Y-88378000D03*
X141958000Y-86628000D03*
X141958000Y-88378000D03*
X138458000Y-81548000D03*
X138458000Y-83298000D03*
X141958000Y-81548000D03*
X141958000Y-83298000D03*
X130838000Y-127268000D03*
X130838000Y-129018000D03*
X134338000Y-127268000D03*
X134338000Y-129018000D03*
X130838000Y-122188000D03*
X130838000Y-123938000D03*
X134338000Y-122188000D03*
X134338000Y-123938000D03*
X130838000Y-117108000D03*
X130838000Y-118858000D03*
X134338000Y-117108000D03*
X134338000Y-118858000D03*
X130838000Y-112028000D03*
X130838000Y-113778000D03*
X134338000Y-112028000D03*
X134338000Y-113778000D03*
X130838000Y-106948000D03*
X130838000Y-108698000D03*
X134338000Y-106948000D03*
X134338000Y-108698000D03*
X130838000Y-101868000D03*
X130838000Y-103618000D03*
X134338000Y-101868000D03*
X134338000Y-103618000D03*
X130838000Y-96788000D03*
X130838000Y-98538000D03*
X134338000Y-96788000D03*
X134338000Y-98538000D03*
X130838000Y-91708000D03*
X130838000Y-93458000D03*
X134338000Y-91708000D03*
X134338000Y-93458000D03*
X130838000Y-86628000D03*
X130838000Y-88378000D03*
X134338000Y-86628000D03*
X134338000Y-88378000D03*
X130838000Y-81548000D03*
X130838000Y-83298000D03*
X134338000Y-81548000D03*
X134338000Y-83298000D03*
X123218000Y-127268000D03*
X123218000Y-129018000D03*
X126718000Y-127268000D03*
X126718000Y-129018000D03*
X123218000Y-122188000D03*
X123218000Y-123938000D03*
X126718000Y-122188000D03*
X126718000Y-123938000D03*
X123218000Y-117108000D03*
X123218000Y-118858000D03*
X126718000Y-117108000D03*
X126718000Y-118858000D03*
X123218000Y-112028000D03*
X123218000Y-113778000D03*
X126718000Y-112028000D03*
X126718000Y-113778000D03*
X123218000Y-106948000D03*
X123218000Y-108698000D03*
X126718000Y-106948000D03*
X126718000Y-108698000D03*
X123218000Y-101868000D03*
X123218000Y-103618000D03*
X126718000Y-101868000D03*
X126718000Y-103618000D03*
X123218000Y-96788000D03*
X123218000Y-98538000D03*
X126718000Y-96788000D03*
X126718000Y-98538000D03*
X123218000Y-91708000D03*
X123218000Y-93458000D03*
X126718000Y-91708000D03*
X126718000Y-93458000D03*
X123218000Y-86628000D03*
X123218000Y-88378000D03*
X126718000Y-86628000D03*
X126718000Y-88378000D03*
X123218000Y-81548000D03*
X123218000Y-83298000D03*
X126718000Y-81548000D03*
X126718000Y-83298000D03*
X115598000Y-127268000D03*
X115598000Y-129018000D03*
X119098000Y-127268000D03*
X119098000Y-129018000D03*
X115598000Y-122188000D03*
X115598000Y-123938000D03*
X119098000Y-122188000D03*
X119098000Y-123938000D03*
X115598000Y-117108000D03*
X115598000Y-118858000D03*
X119098000Y-117108000D03*
X119098000Y-118858000D03*
X115598000Y-112028000D03*
X115598000Y-113778000D03*
X119098000Y-112028000D03*
X119098000Y-113778000D03*
X115598000Y-106948000D03*
X115598000Y-108698000D03*
X119098000Y-106948000D03*
X119098000Y-108698000D03*
X115598000Y-101868000D03*
X115598000Y-103618000D03*
X119098000Y-101868000D03*
X119098000Y-103618000D03*
X115598000Y-96788000D03*
X115598000Y-98538000D03*
X119098000Y-96788000D03*
X119098000Y-98538000D03*
X115598000Y-91708000D03*
X115598000Y-93458000D03*
X119098000Y-91708000D03*
X119098000Y-93458000D03*
X115598000Y-86628000D03*
X115598000Y-88378000D03*
X119098000Y-86628000D03*
X119098000Y-88378000D03*
X115598000Y-81548000D03*
X115598000Y-83298000D03*
X119098000Y-81548000D03*
X119098000Y-83298000D03*
X107978000Y-127268000D03*
X107978000Y-129018000D03*
X111478000Y-127268000D03*
X111478000Y-129018000D03*
X107978000Y-122188000D03*
X107978000Y-123938000D03*
X111478000Y-122188000D03*
X111478000Y-123938000D03*
X107978000Y-117108000D03*
X107978000Y-118858000D03*
X111478000Y-117108000D03*
X111478000Y-118858000D03*
X107978000Y-112028000D03*
X107978000Y-113778000D03*
X111478000Y-112028000D03*
X111478000Y-113778000D03*
X107978000Y-106948000D03*
X107978000Y-108698000D03*
X111478000Y-106948000D03*
X111478000Y-108698000D03*
X107978000Y-101868000D03*
X107978000Y-103618000D03*
X111478000Y-101868000D03*
X111478000Y-103618000D03*
X107978000Y-96788000D03*
X107978000Y-98538000D03*
X111478000Y-96788000D03*
X111478000Y-98538000D03*
X107978000Y-91708000D03*
X107978000Y-93458000D03*
X111478000Y-91708000D03*
X111478000Y-93458000D03*
X107978000Y-86628000D03*
X107978000Y-88378000D03*
X111478000Y-86628000D03*
X111478000Y-88378000D03*
X107978000Y-81548000D03*
X107978000Y-83298000D03*
X111478000Y-81548000D03*
X111478000Y-83298000D03*
X100358000Y-127268000D03*
X100358000Y-129018000D03*
X103858000Y-127268000D03*
X103858000Y-129018000D03*
X100358000Y-122188000D03*
X100358000Y-123938000D03*
X103858000Y-122188000D03*
X103858000Y-123938000D03*
X100358000Y-117108000D03*
X100358000Y-118858000D03*
X103858000Y-117108000D03*
X103858000Y-118858000D03*
X100358000Y-112028000D03*
X100358000Y-113778000D03*
X103858000Y-112028000D03*
X103858000Y-113778000D03*
X100358000Y-106948000D03*
X100358000Y-108698000D03*
X103858000Y-106948000D03*
X103858000Y-108698000D03*
X100358000Y-101868000D03*
X100358000Y-103618000D03*
X103858000Y-101868000D03*
X103858000Y-103618000D03*
X100358000Y-96788000D03*
X100358000Y-98538000D03*
X103858000Y-96788000D03*
X103858000Y-98538000D03*
X100358000Y-91708000D03*
X100358000Y-93458000D03*
X103858000Y-91708000D03*
X103858000Y-93458000D03*
X100358000Y-86628000D03*
X100358000Y-88378000D03*
X103858000Y-86628000D03*
X103858000Y-88378000D03*
X100358000Y-81548000D03*
X100358000Y-83298000D03*
X103858000Y-81548000D03*
X103858000Y-83298000D03*
X92738000Y-127268000D03*
X92738000Y-129018000D03*
X96238000Y-127268000D03*
X96238000Y-129018000D03*
X92738000Y-122188000D03*
X92738000Y-123938000D03*
X96238000Y-122188000D03*
X96238000Y-123938000D03*
X92738000Y-117108000D03*
X92738000Y-118858000D03*
X96238000Y-117108000D03*
X96238000Y-118858000D03*
X92738000Y-112028000D03*
X92738000Y-113778000D03*
X96238000Y-112028000D03*
X96238000Y-113778000D03*
X92738000Y-106948000D03*
X92738000Y-108698000D03*
X96238000Y-106948000D03*
X96238000Y-108698000D03*
X92738000Y-101868000D03*
X92738000Y-103618000D03*
X96238000Y-101868000D03*
X96238000Y-103618000D03*
X92738000Y-96788000D03*
X92738000Y-98538000D03*
X96238000Y-96788000D03*
X96238000Y-98538000D03*
X92738000Y-91708000D03*
X92738000Y-93458000D03*
X96238000Y-91708000D03*
X96238000Y-93458000D03*
X92738000Y-86628000D03*
X92738000Y-88378000D03*
X96238000Y-86628000D03*
X96238000Y-88378000D03*
X92738000Y-81548000D03*
X92738000Y-83298000D03*
X96238000Y-81548000D03*
X96238000Y-83298000D03*
X85118000Y-127268000D03*
X85118000Y-129018000D03*
X88618000Y-127268000D03*
X88618000Y-129018000D03*
X85118000Y-122188000D03*
X85118000Y-123938000D03*
X88618000Y-122188000D03*
X88618000Y-123938000D03*
X85118000Y-117108000D03*
X85118000Y-118858000D03*
X88618000Y-117108000D03*
X88618000Y-118858000D03*
X85118000Y-112028000D03*
X85118000Y-113778000D03*
X88618000Y-112028000D03*
X88618000Y-113778000D03*
X85118000Y-106948000D03*
X85118000Y-108698000D03*
X88618000Y-106948000D03*
X88618000Y-108698000D03*
X85118000Y-101868000D03*
X85118000Y-103618000D03*
X88618000Y-101868000D03*
X88618000Y-103618000D03*
X85118000Y-96788000D03*
X85118000Y-98538000D03*
X88618000Y-96788000D03*
X88618000Y-98538000D03*
X85118000Y-91708000D03*
X85118000Y-93458000D03*
X88618000Y-91708000D03*
X88618000Y-93458000D03*
X85118000Y-86628000D03*
X85118000Y-88378000D03*
X88618000Y-86628000D03*
X88618000Y-88378000D03*
X85118000Y-81548000D03*
X85118000Y-83298000D03*
X88618000Y-81548000D03*
X88618000Y-83298000D03*
X77498000Y-127268000D03*
X77498000Y-129018000D03*
X80998000Y-127268000D03*
X80998000Y-129018000D03*
X77498000Y-122188000D03*
X77498000Y-123938000D03*
X80998000Y-122188000D03*
X80998000Y-123938000D03*
X77498000Y-117108000D03*
X77498000Y-118858000D03*
X80998000Y-117108000D03*
X80998000Y-118858000D03*
X77498000Y-112028000D03*
X77498000Y-113778000D03*
X80998000Y-112028000D03*
X80998000Y-113778000D03*
X77498000Y-106948000D03*
X77498000Y-108698000D03*
X80998000Y-106948000D03*
X80998000Y-108698000D03*
X77498000Y-101868000D03*
X77498000Y-103618000D03*
X80998000Y-101868000D03*
X80998000Y-103618000D03*
X77498000Y-96788000D03*
X77498000Y-98538000D03*
X80998000Y-96788000D03*
X80998000Y-98538000D03*
X77498000Y-91708000D03*
X77498000Y-93458000D03*
X80998000Y-91708000D03*
X80998000Y-93458000D03*
X77498000Y-86628000D03*
X77498000Y-88378000D03*
X80998000Y-86628000D03*
X80998000Y-88378000D03*
X77498000Y-81548000D03*
X77498000Y-83298000D03*
X80998000Y-81548000D03*
X80998000Y-83298000D03*
M02*
