G04 #@! TF.GenerationSoftware,KiCad,Pcbnew,(5.1.5-0-10_14)*
G04 #@! TF.CreationDate,2020-01-20T13:36:02-08:00*
G04 #@! TF.ProjectId,SpectrumAnayzerMini,53706563-7472-4756-9d41-6e61797a6572,rev?*
G04 #@! TF.SameCoordinates,Original*
G04 #@! TF.FileFunction,Copper,L2,Bot*
G04 #@! TF.FilePolarity,Positive*
%FSLAX46Y46*%
G04 Gerber Fmt 4.6, Leading zero omitted, Abs format (unit mm)*
G04 Created by KiCad (PCBNEW (5.1.5-0-10_14)) date 2020-01-20 13:36:02*
%MOMM*%
%LPD*%
G04 APERTURE LIST*
%ADD10O,1.700000X1.700000*%
%ADD11R,1.700000X1.700000*%
%ADD12C,1.600000*%
%ADD13R,1.600000X1.600000*%
%ADD14C,0.800000*%
%ADD15C,1.524000*%
%ADD16C,0.508000*%
%ADD17C,0.762000*%
G04 APERTURE END LIST*
D10*
X71120000Y-89027000D03*
X71120000Y-91567000D03*
D11*
X71120000Y-94107000D03*
D12*
X71120000Y-102703000D03*
D13*
X71120000Y-100203000D03*
D10*
X199644000Y-123571000D03*
X199644000Y-121031000D03*
D11*
X199644000Y-118491000D03*
D14*
X186182000Y-128143000D03*
X193548000Y-82423000D03*
X79502000Y-128143000D03*
X86868000Y-82423000D03*
X94488000Y-82423000D03*
X87122000Y-128143000D03*
X94742000Y-128143000D03*
X102108000Y-82423000D03*
X109728000Y-82423000D03*
X102362000Y-128143000D03*
X117348000Y-82423000D03*
X109982000Y-128143000D03*
X124968000Y-82423000D03*
X117602000Y-128143000D03*
X125222000Y-128143000D03*
X132588000Y-82423000D03*
X132842000Y-128270000D03*
X140208000Y-82550000D03*
X155575000Y-82423000D03*
X148209000Y-128143000D03*
X155702000Y-128143000D03*
X163068000Y-82423000D03*
X163322000Y-128143000D03*
X170688000Y-82423000D03*
X170942000Y-128143000D03*
X178308000Y-82423000D03*
X185928000Y-82423000D03*
X178562000Y-128143000D03*
X193675000Y-128143000D03*
X140462000Y-128270000D03*
X147828000Y-82550000D03*
X79248000Y-82423000D03*
D15*
X69917919Y-89027000D02*
X71120000Y-89027000D01*
X69307999Y-89636920D02*
X69917919Y-89027000D01*
X69307999Y-96066999D02*
X69307999Y-89636920D01*
X71120000Y-97879000D02*
X69307999Y-96066999D01*
X71120000Y-100203000D02*
X71120000Y-97879000D01*
X80563228Y-131219990D02*
X68326000Y-118982762D01*
X186773248Y-131219990D02*
X80563228Y-131219990D01*
X68796000Y-100203000D02*
X71120000Y-100203000D01*
X68326000Y-100673000D02*
X68796000Y-100203000D01*
X68326000Y-118982762D02*
X68326000Y-100673000D01*
X189738000Y-126023000D02*
X189738000Y-127889000D01*
X197270000Y-118491000D02*
X189738000Y-126023000D01*
X199644000Y-118491000D02*
X197270000Y-118491000D01*
X189738000Y-127889000D02*
X186773248Y-131219990D01*
D16*
X186182000Y-128143000D02*
X186182000Y-89789000D01*
X186182000Y-89789000D02*
X193548000Y-82423000D01*
X79502000Y-89789000D02*
X86868000Y-82423000D01*
X79502000Y-128143000D02*
X79502000Y-89789000D01*
X87122000Y-128143000D02*
X87122000Y-89789000D01*
X87122000Y-89789000D02*
X94488000Y-82423000D01*
X94742000Y-128143000D02*
X94742000Y-89789000D01*
X94742000Y-89789000D02*
X102108000Y-82423000D01*
X102362000Y-128143000D02*
X102362000Y-89789000D01*
X102362000Y-89789000D02*
X109728000Y-82423000D01*
X109982000Y-128143000D02*
X109982000Y-89789000D01*
X109982000Y-89789000D02*
X117348000Y-82423000D01*
X117602000Y-128143000D02*
X117602000Y-89789000D01*
X117602000Y-89789000D02*
X124968000Y-82423000D01*
X125222000Y-89789000D02*
X132588000Y-82423000D01*
X125222000Y-128143000D02*
X125222000Y-89789000D01*
X132842000Y-89916000D02*
X140208000Y-82550000D01*
X132842000Y-128270000D02*
X132842000Y-89916000D01*
X148209000Y-89789000D02*
X155575000Y-82423000D01*
X148209000Y-128143000D02*
X148209000Y-89789000D01*
X155702000Y-128143000D02*
X155702000Y-89789000D01*
X155702000Y-89789000D02*
X163068000Y-82423000D01*
X163322000Y-128143000D02*
X163322000Y-89789000D01*
X163322000Y-89789000D02*
X170688000Y-82423000D01*
X170942000Y-89789000D02*
X178308000Y-82423000D01*
X170942000Y-128143000D02*
X170942000Y-89789000D01*
X178562000Y-89789000D02*
X185928000Y-82423000D01*
X178562000Y-128143000D02*
X178562000Y-89789000D01*
X193675000Y-127000000D02*
X199644000Y-121031000D01*
X193675000Y-128143000D02*
X193675000Y-127000000D01*
X140462000Y-89916000D02*
X147828000Y-82550000D01*
X140462000Y-128270000D02*
X140462000Y-89916000D01*
D17*
X79248000Y-83439000D02*
X79248000Y-82423000D01*
X71120000Y-91567000D02*
X79248000Y-83439000D01*
M02*
