M48
; DRILL file {KiCad (5.1.5-0-10_14)} date Monday, January 20, 2020 at 01:36:06 PM
; FORMAT={-:-/ absolute / inch / decimal}
; #@! TF.CreationDate,2020-01-20T13:36:06-08:00
; #@! TF.GenerationSoftware,Kicad,Pcbnew,(5.1.5-0-10_14)
; #@! TF.FileFunction,Plated,1,2,PTH
FMAT,2
INCH
T1C0.0157
T2C0.0315
T3C0.0394
%
G90
G05
T1
X3.12Y-3.245
X3.13Y-5.045
X3.42Y-3.245
X3.43Y-5.045
X3.72Y-3.245
X3.73Y-5.045
X4.02Y-3.245
X4.03Y-5.045
X4.32Y-3.245
X4.33Y-5.045
X4.62Y-3.245
X4.63Y-5.045
X4.92Y-3.245
X4.93Y-5.045
X5.22Y-3.245
X5.23Y-5.05
X5.52Y-3.25
X5.53Y-5.05
X5.82Y-3.25
X5.835Y-5.045
X6.125Y-3.245
X6.13Y-5.045
X6.42Y-3.245
X6.43Y-5.045
X6.72Y-3.245
X6.73Y-5.045
X7.02Y-3.245
X7.03Y-5.045
X7.32Y-3.245
X7.33Y-5.045
X7.62Y-3.245
X7.625Y-5.045
T2
X2.8Y-3.945
X2.8Y-4.0434
T3
X2.8Y-3.505
X2.8Y-3.605
X2.8Y-3.705
X7.86Y-4.665
X7.86Y-4.765
X7.86Y-4.865
T0
M30
