G04 #@! TF.GenerationSoftware,KiCad,Pcbnew,(5.1.5-0-10_14)*
G04 #@! TF.CreationDate,2020-01-20T13:36:02-08:00*
G04 #@! TF.ProjectId,SpectrumAnayzerMini,53706563-7472-4756-9d41-6e61797a6572,rev?*
G04 #@! TF.SameCoordinates,Original*
G04 #@! TF.FileFunction,Soldermask,Top*
G04 #@! TF.FilePolarity,Negative*
%FSLAX46Y46*%
G04 Gerber Fmt 4.6, Leading zero omitted, Abs format (unit mm)*
G04 Created by KiCad (PCBNEW (5.1.5-0-10_14)) date 2020-01-20 13:36:02*
%MOMM*%
%LPD*%
G04 APERTURE LIST*
%ADD10C,0.100000*%
G04 APERTURE END LIST*
D10*
G36*
X200912487Y-128288996D02*
G01*
X201149253Y-128387068D01*
X201149255Y-128387069D01*
X201253407Y-128456661D01*
X201362339Y-128529447D01*
X201543553Y-128710661D01*
X201685932Y-128923747D01*
X201784004Y-129160513D01*
X201834000Y-129411861D01*
X201834000Y-129668139D01*
X201784004Y-129919487D01*
X201702879Y-130115339D01*
X201685931Y-130156255D01*
X201543553Y-130369339D01*
X201362339Y-130550553D01*
X201149255Y-130692931D01*
X201149254Y-130692932D01*
X201149253Y-130692932D01*
X200912487Y-130791004D01*
X200661139Y-130841000D01*
X200404861Y-130841000D01*
X200153513Y-130791004D01*
X199916747Y-130692932D01*
X199916746Y-130692932D01*
X199916745Y-130692931D01*
X199703661Y-130550553D01*
X199522447Y-130369339D01*
X199380069Y-130156255D01*
X199363121Y-130115339D01*
X199281996Y-129919487D01*
X199232000Y-129668139D01*
X199232000Y-129411861D01*
X199281996Y-129160513D01*
X199380068Y-128923747D01*
X199522447Y-128710661D01*
X199703661Y-128529447D01*
X199812593Y-128456661D01*
X199916745Y-128387069D01*
X199916747Y-128387068D01*
X200153513Y-128288996D01*
X200404861Y-128239000D01*
X200661139Y-128239000D01*
X200912487Y-128288996D01*
G37*
G36*
X70483487Y-128034996D02*
G01*
X70720253Y-128133068D01*
X70720255Y-128133069D01*
X70933339Y-128275447D01*
X71114553Y-128456661D01*
X71171575Y-128542000D01*
X71256932Y-128669747D01*
X71355004Y-128906513D01*
X71405000Y-129157861D01*
X71405000Y-129414139D01*
X71355004Y-129665487D01*
X71256932Y-129902253D01*
X71256931Y-129902255D01*
X71114553Y-130115339D01*
X70933339Y-130296553D01*
X70720255Y-130438931D01*
X70720254Y-130438932D01*
X70720253Y-130438932D01*
X70483487Y-130537004D01*
X70232139Y-130587000D01*
X69975861Y-130587000D01*
X69724513Y-130537004D01*
X69487747Y-130438932D01*
X69487746Y-130438932D01*
X69487745Y-130438931D01*
X69274661Y-130296553D01*
X69093447Y-130115339D01*
X68951069Y-129902255D01*
X68951068Y-129902253D01*
X68852996Y-129665487D01*
X68803000Y-129414139D01*
X68803000Y-129157861D01*
X68852996Y-128906513D01*
X68951068Y-128669747D01*
X69036426Y-128542000D01*
X69093447Y-128456661D01*
X69274661Y-128275447D01*
X69487745Y-128133069D01*
X69487747Y-128133068D01*
X69724513Y-128034996D01*
X69975861Y-127985000D01*
X70232139Y-127985000D01*
X70483487Y-128034996D01*
G37*
G36*
X188529000Y-129494000D02*
G01*
X186827000Y-129494000D01*
X186827000Y-128542000D01*
X188529000Y-128542000D01*
X188529000Y-129494000D01*
G37*
G36*
X185029000Y-129494000D02*
G01*
X183327000Y-129494000D01*
X183327000Y-128542000D01*
X185029000Y-128542000D01*
X185029000Y-129494000D01*
G37*
G36*
X180909000Y-129494000D02*
G01*
X179207000Y-129494000D01*
X179207000Y-128542000D01*
X180909000Y-128542000D01*
X180909000Y-129494000D01*
G37*
G36*
X177409000Y-129494000D02*
G01*
X175707000Y-129494000D01*
X175707000Y-128542000D01*
X177409000Y-128542000D01*
X177409000Y-129494000D01*
G37*
G36*
X173289000Y-129494000D02*
G01*
X171587000Y-129494000D01*
X171587000Y-128542000D01*
X173289000Y-128542000D01*
X173289000Y-129494000D01*
G37*
G36*
X169789000Y-129494000D02*
G01*
X168087000Y-129494000D01*
X168087000Y-128542000D01*
X169789000Y-128542000D01*
X169789000Y-129494000D01*
G37*
G36*
X165669000Y-129494000D02*
G01*
X163967000Y-129494000D01*
X163967000Y-128542000D01*
X165669000Y-128542000D01*
X165669000Y-129494000D01*
G37*
G36*
X162169000Y-129494000D02*
G01*
X160467000Y-129494000D01*
X160467000Y-128542000D01*
X162169000Y-128542000D01*
X162169000Y-129494000D01*
G37*
G36*
X158049000Y-129494000D02*
G01*
X156347000Y-129494000D01*
X156347000Y-128542000D01*
X158049000Y-128542000D01*
X158049000Y-129494000D01*
G37*
G36*
X154549000Y-129494000D02*
G01*
X152847000Y-129494000D01*
X152847000Y-128542000D01*
X154549000Y-128542000D01*
X154549000Y-129494000D01*
G37*
G36*
X150429000Y-129494000D02*
G01*
X148727000Y-129494000D01*
X148727000Y-128542000D01*
X150429000Y-128542000D01*
X150429000Y-129494000D01*
G37*
G36*
X146929000Y-129494000D02*
G01*
X145227000Y-129494000D01*
X145227000Y-128542000D01*
X146929000Y-128542000D01*
X146929000Y-129494000D01*
G37*
G36*
X142809000Y-129494000D02*
G01*
X141107000Y-129494000D01*
X141107000Y-128542000D01*
X142809000Y-128542000D01*
X142809000Y-129494000D01*
G37*
G36*
X139309000Y-129494000D02*
G01*
X137607000Y-129494000D01*
X137607000Y-128542000D01*
X139309000Y-128542000D01*
X139309000Y-129494000D01*
G37*
G36*
X135189000Y-129494000D02*
G01*
X133487000Y-129494000D01*
X133487000Y-128542000D01*
X135189000Y-128542000D01*
X135189000Y-129494000D01*
G37*
G36*
X131689000Y-129494000D02*
G01*
X129987000Y-129494000D01*
X129987000Y-128542000D01*
X131689000Y-128542000D01*
X131689000Y-129494000D01*
G37*
G36*
X127569000Y-129494000D02*
G01*
X125867000Y-129494000D01*
X125867000Y-128542000D01*
X127569000Y-128542000D01*
X127569000Y-129494000D01*
G37*
G36*
X124069000Y-129494000D02*
G01*
X122367000Y-129494000D01*
X122367000Y-128542000D01*
X124069000Y-128542000D01*
X124069000Y-129494000D01*
G37*
G36*
X119949000Y-129494000D02*
G01*
X118247000Y-129494000D01*
X118247000Y-128542000D01*
X119949000Y-128542000D01*
X119949000Y-129494000D01*
G37*
G36*
X116449000Y-129494000D02*
G01*
X114747000Y-129494000D01*
X114747000Y-128542000D01*
X116449000Y-128542000D01*
X116449000Y-129494000D01*
G37*
G36*
X112329000Y-129494000D02*
G01*
X110627000Y-129494000D01*
X110627000Y-128542000D01*
X112329000Y-128542000D01*
X112329000Y-129494000D01*
G37*
G36*
X108829000Y-129494000D02*
G01*
X107127000Y-129494000D01*
X107127000Y-128542000D01*
X108829000Y-128542000D01*
X108829000Y-129494000D01*
G37*
G36*
X104709000Y-129494000D02*
G01*
X103007000Y-129494000D01*
X103007000Y-128542000D01*
X104709000Y-128542000D01*
X104709000Y-129494000D01*
G37*
G36*
X101209000Y-129494000D02*
G01*
X99507000Y-129494000D01*
X99507000Y-128542000D01*
X101209000Y-128542000D01*
X101209000Y-129494000D01*
G37*
G36*
X97089000Y-129494000D02*
G01*
X95387000Y-129494000D01*
X95387000Y-128542000D01*
X97089000Y-128542000D01*
X97089000Y-129494000D01*
G37*
G36*
X93589000Y-129494000D02*
G01*
X91887000Y-129494000D01*
X91887000Y-128542000D01*
X93589000Y-128542000D01*
X93589000Y-129494000D01*
G37*
G36*
X89469000Y-129494000D02*
G01*
X87767000Y-129494000D01*
X87767000Y-128542000D01*
X89469000Y-128542000D01*
X89469000Y-129494000D01*
G37*
G36*
X85969000Y-129494000D02*
G01*
X84267000Y-129494000D01*
X84267000Y-128542000D01*
X85969000Y-128542000D01*
X85969000Y-129494000D01*
G37*
G36*
X81849000Y-129494000D02*
G01*
X80147000Y-129494000D01*
X80147000Y-128542000D01*
X81849000Y-128542000D01*
X81849000Y-129494000D01*
G37*
G36*
X78349000Y-129494000D02*
G01*
X76647000Y-129494000D01*
X76647000Y-128542000D01*
X78349000Y-128542000D01*
X78349000Y-129494000D01*
G37*
G36*
X192649000Y-129494000D02*
G01*
X190947000Y-129494000D01*
X190947000Y-128542000D01*
X192649000Y-128542000D01*
X192649000Y-129494000D01*
G37*
G36*
X196149000Y-129494000D02*
G01*
X194447000Y-129494000D01*
X194447000Y-128542000D01*
X196149000Y-128542000D01*
X196149000Y-129494000D01*
G37*
G36*
X108829000Y-127744000D02*
G01*
X107127000Y-127744000D01*
X107127000Y-126792000D01*
X108829000Y-126792000D01*
X108829000Y-127744000D01*
G37*
G36*
X192649000Y-127744000D02*
G01*
X190947000Y-127744000D01*
X190947000Y-126792000D01*
X192649000Y-126792000D01*
X192649000Y-127744000D01*
G37*
G36*
X196149000Y-127744000D02*
G01*
X194447000Y-127744000D01*
X194447000Y-126792000D01*
X196149000Y-126792000D01*
X196149000Y-127744000D01*
G37*
G36*
X185029000Y-127744000D02*
G01*
X183327000Y-127744000D01*
X183327000Y-126792000D01*
X185029000Y-126792000D01*
X185029000Y-127744000D01*
G37*
G36*
X188529000Y-127744000D02*
G01*
X186827000Y-127744000D01*
X186827000Y-126792000D01*
X188529000Y-126792000D01*
X188529000Y-127744000D01*
G37*
G36*
X177409000Y-127744000D02*
G01*
X175707000Y-127744000D01*
X175707000Y-126792000D01*
X177409000Y-126792000D01*
X177409000Y-127744000D01*
G37*
G36*
X180909000Y-127744000D02*
G01*
X179207000Y-127744000D01*
X179207000Y-126792000D01*
X180909000Y-126792000D01*
X180909000Y-127744000D01*
G37*
G36*
X169789000Y-127744000D02*
G01*
X168087000Y-127744000D01*
X168087000Y-126792000D01*
X169789000Y-126792000D01*
X169789000Y-127744000D01*
G37*
G36*
X173289000Y-127744000D02*
G01*
X171587000Y-127744000D01*
X171587000Y-126792000D01*
X173289000Y-126792000D01*
X173289000Y-127744000D01*
G37*
G36*
X162169000Y-127744000D02*
G01*
X160467000Y-127744000D01*
X160467000Y-126792000D01*
X162169000Y-126792000D01*
X162169000Y-127744000D01*
G37*
G36*
X165669000Y-127744000D02*
G01*
X163967000Y-127744000D01*
X163967000Y-126792000D01*
X165669000Y-126792000D01*
X165669000Y-127744000D01*
G37*
G36*
X154549000Y-127744000D02*
G01*
X152847000Y-127744000D01*
X152847000Y-126792000D01*
X154549000Y-126792000D01*
X154549000Y-127744000D01*
G37*
G36*
X158049000Y-127744000D02*
G01*
X156347000Y-127744000D01*
X156347000Y-126792000D01*
X158049000Y-126792000D01*
X158049000Y-127744000D01*
G37*
G36*
X146929000Y-127744000D02*
G01*
X145227000Y-127744000D01*
X145227000Y-126792000D01*
X146929000Y-126792000D01*
X146929000Y-127744000D01*
G37*
G36*
X150429000Y-127744000D02*
G01*
X148727000Y-127744000D01*
X148727000Y-126792000D01*
X150429000Y-126792000D01*
X150429000Y-127744000D01*
G37*
G36*
X139309000Y-127744000D02*
G01*
X137607000Y-127744000D01*
X137607000Y-126792000D01*
X139309000Y-126792000D01*
X139309000Y-127744000D01*
G37*
G36*
X142809000Y-127744000D02*
G01*
X141107000Y-127744000D01*
X141107000Y-126792000D01*
X142809000Y-126792000D01*
X142809000Y-127744000D01*
G37*
G36*
X131689000Y-127744000D02*
G01*
X129987000Y-127744000D01*
X129987000Y-126792000D01*
X131689000Y-126792000D01*
X131689000Y-127744000D01*
G37*
G36*
X135189000Y-127744000D02*
G01*
X133487000Y-127744000D01*
X133487000Y-126792000D01*
X135189000Y-126792000D01*
X135189000Y-127744000D01*
G37*
G36*
X124069000Y-127744000D02*
G01*
X122367000Y-127744000D01*
X122367000Y-126792000D01*
X124069000Y-126792000D01*
X124069000Y-127744000D01*
G37*
G36*
X127569000Y-127744000D02*
G01*
X125867000Y-127744000D01*
X125867000Y-126792000D01*
X127569000Y-126792000D01*
X127569000Y-127744000D01*
G37*
G36*
X116449000Y-127744000D02*
G01*
X114747000Y-127744000D01*
X114747000Y-126792000D01*
X116449000Y-126792000D01*
X116449000Y-127744000D01*
G37*
G36*
X119949000Y-127744000D02*
G01*
X118247000Y-127744000D01*
X118247000Y-126792000D01*
X119949000Y-126792000D01*
X119949000Y-127744000D01*
G37*
G36*
X112329000Y-127744000D02*
G01*
X110627000Y-127744000D01*
X110627000Y-126792000D01*
X112329000Y-126792000D01*
X112329000Y-127744000D01*
G37*
G36*
X101209000Y-127744000D02*
G01*
X99507000Y-127744000D01*
X99507000Y-126792000D01*
X101209000Y-126792000D01*
X101209000Y-127744000D01*
G37*
G36*
X104709000Y-127744000D02*
G01*
X103007000Y-127744000D01*
X103007000Y-126792000D01*
X104709000Y-126792000D01*
X104709000Y-127744000D01*
G37*
G36*
X93589000Y-127744000D02*
G01*
X91887000Y-127744000D01*
X91887000Y-126792000D01*
X93589000Y-126792000D01*
X93589000Y-127744000D01*
G37*
G36*
X97089000Y-127744000D02*
G01*
X95387000Y-127744000D01*
X95387000Y-126792000D01*
X97089000Y-126792000D01*
X97089000Y-127744000D01*
G37*
G36*
X85969000Y-127744000D02*
G01*
X84267000Y-127744000D01*
X84267000Y-126792000D01*
X85969000Y-126792000D01*
X85969000Y-127744000D01*
G37*
G36*
X89469000Y-127744000D02*
G01*
X87767000Y-127744000D01*
X87767000Y-126792000D01*
X89469000Y-126792000D01*
X89469000Y-127744000D01*
G37*
G36*
X78349000Y-127744000D02*
G01*
X76647000Y-127744000D01*
X76647000Y-126792000D01*
X78349000Y-126792000D01*
X78349000Y-127744000D01*
G37*
G36*
X81849000Y-127744000D02*
G01*
X80147000Y-127744000D01*
X80147000Y-126792000D01*
X81849000Y-126792000D01*
X81849000Y-127744000D01*
G37*
G36*
X199757512Y-122674927D02*
G01*
X199906812Y-122704624D01*
X200070784Y-122772544D01*
X200218354Y-122871147D01*
X200343853Y-122996646D01*
X200442456Y-123144216D01*
X200510376Y-123308188D01*
X200545000Y-123482259D01*
X200545000Y-123659741D01*
X200510376Y-123833812D01*
X200442456Y-123997784D01*
X200343853Y-124145354D01*
X200218354Y-124270853D01*
X200070784Y-124369456D01*
X199906812Y-124437376D01*
X199757512Y-124467073D01*
X199732742Y-124472000D01*
X199555258Y-124472000D01*
X199530488Y-124467073D01*
X199381188Y-124437376D01*
X199217216Y-124369456D01*
X199069646Y-124270853D01*
X198944147Y-124145354D01*
X198845544Y-123997784D01*
X198777624Y-123833812D01*
X198743000Y-123659741D01*
X198743000Y-123482259D01*
X198777624Y-123308188D01*
X198845544Y-123144216D01*
X198944147Y-122996646D01*
X199069646Y-122871147D01*
X199217216Y-122772544D01*
X199381188Y-122704624D01*
X199530488Y-122674927D01*
X199555258Y-122670000D01*
X199732742Y-122670000D01*
X199757512Y-122674927D01*
G37*
G36*
X196149000Y-124414000D02*
G01*
X194447000Y-124414000D01*
X194447000Y-123462000D01*
X196149000Y-123462000D01*
X196149000Y-124414000D01*
G37*
G36*
X142809000Y-124414000D02*
G01*
X141107000Y-124414000D01*
X141107000Y-123462000D01*
X142809000Y-123462000D01*
X142809000Y-124414000D01*
G37*
G36*
X81849000Y-124414000D02*
G01*
X80147000Y-124414000D01*
X80147000Y-123462000D01*
X81849000Y-123462000D01*
X81849000Y-124414000D01*
G37*
G36*
X180909000Y-124414000D02*
G01*
X179207000Y-124414000D01*
X179207000Y-123462000D01*
X180909000Y-123462000D01*
X180909000Y-124414000D01*
G37*
G36*
X78349000Y-124414000D02*
G01*
X76647000Y-124414000D01*
X76647000Y-123462000D01*
X78349000Y-123462000D01*
X78349000Y-124414000D01*
G37*
G36*
X177409000Y-124414000D02*
G01*
X175707000Y-124414000D01*
X175707000Y-123462000D01*
X177409000Y-123462000D01*
X177409000Y-124414000D01*
G37*
G36*
X192649000Y-124414000D02*
G01*
X190947000Y-124414000D01*
X190947000Y-123462000D01*
X192649000Y-123462000D01*
X192649000Y-124414000D01*
G37*
G36*
X173289000Y-124414000D02*
G01*
X171587000Y-124414000D01*
X171587000Y-123462000D01*
X173289000Y-123462000D01*
X173289000Y-124414000D01*
G37*
G36*
X169789000Y-124414000D02*
G01*
X168087000Y-124414000D01*
X168087000Y-123462000D01*
X169789000Y-123462000D01*
X169789000Y-124414000D01*
G37*
G36*
X89469000Y-124414000D02*
G01*
X87767000Y-124414000D01*
X87767000Y-123462000D01*
X89469000Y-123462000D01*
X89469000Y-124414000D01*
G37*
G36*
X165669000Y-124414000D02*
G01*
X163967000Y-124414000D01*
X163967000Y-123462000D01*
X165669000Y-123462000D01*
X165669000Y-124414000D01*
G37*
G36*
X85969000Y-124414000D02*
G01*
X84267000Y-124414000D01*
X84267000Y-123462000D01*
X85969000Y-123462000D01*
X85969000Y-124414000D01*
G37*
G36*
X162169000Y-124414000D02*
G01*
X160467000Y-124414000D01*
X160467000Y-123462000D01*
X162169000Y-123462000D01*
X162169000Y-124414000D01*
G37*
G36*
X185029000Y-124414000D02*
G01*
X183327000Y-124414000D01*
X183327000Y-123462000D01*
X185029000Y-123462000D01*
X185029000Y-124414000D01*
G37*
G36*
X188529000Y-124414000D02*
G01*
X186827000Y-124414000D01*
X186827000Y-123462000D01*
X188529000Y-123462000D01*
X188529000Y-124414000D01*
G37*
G36*
X158049000Y-124414000D02*
G01*
X156347000Y-124414000D01*
X156347000Y-123462000D01*
X158049000Y-123462000D01*
X158049000Y-124414000D01*
G37*
G36*
X154549000Y-124414000D02*
G01*
X152847000Y-124414000D01*
X152847000Y-123462000D01*
X154549000Y-123462000D01*
X154549000Y-124414000D01*
G37*
G36*
X97089000Y-124414000D02*
G01*
X95387000Y-124414000D01*
X95387000Y-123462000D01*
X97089000Y-123462000D01*
X97089000Y-124414000D01*
G37*
G36*
X150429000Y-124414000D02*
G01*
X148727000Y-124414000D01*
X148727000Y-123462000D01*
X150429000Y-123462000D01*
X150429000Y-124414000D01*
G37*
G36*
X93589000Y-124414000D02*
G01*
X91887000Y-124414000D01*
X91887000Y-123462000D01*
X93589000Y-123462000D01*
X93589000Y-124414000D01*
G37*
G36*
X146929000Y-124414000D02*
G01*
X145227000Y-124414000D01*
X145227000Y-123462000D01*
X146929000Y-123462000D01*
X146929000Y-124414000D01*
G37*
G36*
X139309000Y-124414000D02*
G01*
X137607000Y-124414000D01*
X137607000Y-123462000D01*
X139309000Y-123462000D01*
X139309000Y-124414000D01*
G37*
G36*
X104709000Y-124414000D02*
G01*
X103007000Y-124414000D01*
X103007000Y-123462000D01*
X104709000Y-123462000D01*
X104709000Y-124414000D01*
G37*
G36*
X135189000Y-124414000D02*
G01*
X133487000Y-124414000D01*
X133487000Y-123462000D01*
X135189000Y-123462000D01*
X135189000Y-124414000D01*
G37*
G36*
X101209000Y-124414000D02*
G01*
X99507000Y-124414000D01*
X99507000Y-123462000D01*
X101209000Y-123462000D01*
X101209000Y-124414000D01*
G37*
G36*
X131689000Y-124414000D02*
G01*
X129987000Y-124414000D01*
X129987000Y-123462000D01*
X131689000Y-123462000D01*
X131689000Y-124414000D01*
G37*
G36*
X127569000Y-124414000D02*
G01*
X125867000Y-124414000D01*
X125867000Y-123462000D01*
X127569000Y-123462000D01*
X127569000Y-124414000D01*
G37*
G36*
X112329000Y-124414000D02*
G01*
X110627000Y-124414000D01*
X110627000Y-123462000D01*
X112329000Y-123462000D01*
X112329000Y-124414000D01*
G37*
G36*
X124069000Y-124414000D02*
G01*
X122367000Y-124414000D01*
X122367000Y-123462000D01*
X124069000Y-123462000D01*
X124069000Y-124414000D01*
G37*
G36*
X108829000Y-124414000D02*
G01*
X107127000Y-124414000D01*
X107127000Y-123462000D01*
X108829000Y-123462000D01*
X108829000Y-124414000D01*
G37*
G36*
X119949000Y-124414000D02*
G01*
X118247000Y-124414000D01*
X118247000Y-123462000D01*
X119949000Y-123462000D01*
X119949000Y-124414000D01*
G37*
G36*
X116449000Y-124414000D02*
G01*
X114747000Y-124414000D01*
X114747000Y-123462000D01*
X116449000Y-123462000D01*
X116449000Y-124414000D01*
G37*
G36*
X185029000Y-122664000D02*
G01*
X183327000Y-122664000D01*
X183327000Y-121712000D01*
X185029000Y-121712000D01*
X185029000Y-122664000D01*
G37*
G36*
X180909000Y-122664000D02*
G01*
X179207000Y-122664000D01*
X179207000Y-121712000D01*
X180909000Y-121712000D01*
X180909000Y-122664000D01*
G37*
G36*
X142809000Y-122664000D02*
G01*
X141107000Y-122664000D01*
X141107000Y-121712000D01*
X142809000Y-121712000D01*
X142809000Y-122664000D01*
G37*
G36*
X131689000Y-122664000D02*
G01*
X129987000Y-122664000D01*
X129987000Y-121712000D01*
X131689000Y-121712000D01*
X131689000Y-122664000D01*
G37*
G36*
X139309000Y-122664000D02*
G01*
X137607000Y-122664000D01*
X137607000Y-121712000D01*
X139309000Y-121712000D01*
X139309000Y-122664000D01*
G37*
G36*
X192649000Y-122664000D02*
G01*
X190947000Y-122664000D01*
X190947000Y-121712000D01*
X192649000Y-121712000D01*
X192649000Y-122664000D01*
G37*
G36*
X196149000Y-122664000D02*
G01*
X194447000Y-122664000D01*
X194447000Y-121712000D01*
X196149000Y-121712000D01*
X196149000Y-122664000D01*
G37*
G36*
X135189000Y-122664000D02*
G01*
X133487000Y-122664000D01*
X133487000Y-121712000D01*
X135189000Y-121712000D01*
X135189000Y-122664000D01*
G37*
G36*
X177409000Y-122664000D02*
G01*
X175707000Y-122664000D01*
X175707000Y-121712000D01*
X177409000Y-121712000D01*
X177409000Y-122664000D01*
G37*
G36*
X173289000Y-122664000D02*
G01*
X171587000Y-122664000D01*
X171587000Y-121712000D01*
X173289000Y-121712000D01*
X173289000Y-122664000D01*
G37*
G36*
X150429000Y-122664000D02*
G01*
X148727000Y-122664000D01*
X148727000Y-121712000D01*
X150429000Y-121712000D01*
X150429000Y-122664000D01*
G37*
G36*
X169789000Y-122664000D02*
G01*
X168087000Y-122664000D01*
X168087000Y-121712000D01*
X169789000Y-121712000D01*
X169789000Y-122664000D01*
G37*
G36*
X146929000Y-122664000D02*
G01*
X145227000Y-122664000D01*
X145227000Y-121712000D01*
X146929000Y-121712000D01*
X146929000Y-122664000D01*
G37*
G36*
X165669000Y-122664000D02*
G01*
X163967000Y-122664000D01*
X163967000Y-121712000D01*
X165669000Y-121712000D01*
X165669000Y-122664000D01*
G37*
G36*
X124069000Y-122664000D02*
G01*
X122367000Y-122664000D01*
X122367000Y-121712000D01*
X124069000Y-121712000D01*
X124069000Y-122664000D01*
G37*
G36*
X127569000Y-122664000D02*
G01*
X125867000Y-122664000D01*
X125867000Y-121712000D01*
X127569000Y-121712000D01*
X127569000Y-122664000D01*
G37*
G36*
X162169000Y-122664000D02*
G01*
X160467000Y-122664000D01*
X160467000Y-121712000D01*
X162169000Y-121712000D01*
X162169000Y-122664000D01*
G37*
G36*
X158049000Y-122664000D02*
G01*
X156347000Y-122664000D01*
X156347000Y-121712000D01*
X158049000Y-121712000D01*
X158049000Y-122664000D01*
G37*
G36*
X154549000Y-122664000D02*
G01*
X152847000Y-122664000D01*
X152847000Y-121712000D01*
X154549000Y-121712000D01*
X154549000Y-122664000D01*
G37*
G36*
X116449000Y-122664000D02*
G01*
X114747000Y-122664000D01*
X114747000Y-121712000D01*
X116449000Y-121712000D01*
X116449000Y-122664000D01*
G37*
G36*
X119949000Y-122664000D02*
G01*
X118247000Y-122664000D01*
X118247000Y-121712000D01*
X119949000Y-121712000D01*
X119949000Y-122664000D01*
G37*
G36*
X108829000Y-122664000D02*
G01*
X107127000Y-122664000D01*
X107127000Y-121712000D01*
X108829000Y-121712000D01*
X108829000Y-122664000D01*
G37*
G36*
X112329000Y-122664000D02*
G01*
X110627000Y-122664000D01*
X110627000Y-121712000D01*
X112329000Y-121712000D01*
X112329000Y-122664000D01*
G37*
G36*
X101209000Y-122664000D02*
G01*
X99507000Y-122664000D01*
X99507000Y-121712000D01*
X101209000Y-121712000D01*
X101209000Y-122664000D01*
G37*
G36*
X104709000Y-122664000D02*
G01*
X103007000Y-122664000D01*
X103007000Y-121712000D01*
X104709000Y-121712000D01*
X104709000Y-122664000D01*
G37*
G36*
X93589000Y-122664000D02*
G01*
X91887000Y-122664000D01*
X91887000Y-121712000D01*
X93589000Y-121712000D01*
X93589000Y-122664000D01*
G37*
G36*
X97089000Y-122664000D02*
G01*
X95387000Y-122664000D01*
X95387000Y-121712000D01*
X97089000Y-121712000D01*
X97089000Y-122664000D01*
G37*
G36*
X188529000Y-122664000D02*
G01*
X186827000Y-122664000D01*
X186827000Y-121712000D01*
X188529000Y-121712000D01*
X188529000Y-122664000D01*
G37*
G36*
X85969000Y-122664000D02*
G01*
X84267000Y-122664000D01*
X84267000Y-121712000D01*
X85969000Y-121712000D01*
X85969000Y-122664000D01*
G37*
G36*
X89469000Y-122664000D02*
G01*
X87767000Y-122664000D01*
X87767000Y-121712000D01*
X89469000Y-121712000D01*
X89469000Y-122664000D01*
G37*
G36*
X81849000Y-122664000D02*
G01*
X80147000Y-122664000D01*
X80147000Y-121712000D01*
X81849000Y-121712000D01*
X81849000Y-122664000D01*
G37*
G36*
X78349000Y-122664000D02*
G01*
X76647000Y-122664000D01*
X76647000Y-121712000D01*
X78349000Y-121712000D01*
X78349000Y-122664000D01*
G37*
G36*
X199757512Y-120134927D02*
G01*
X199906812Y-120164624D01*
X200070784Y-120232544D01*
X200218354Y-120331147D01*
X200343853Y-120456646D01*
X200442456Y-120604216D01*
X200510376Y-120768188D01*
X200545000Y-120942259D01*
X200545000Y-121119741D01*
X200510376Y-121293812D01*
X200442456Y-121457784D01*
X200343853Y-121605354D01*
X200218354Y-121730853D01*
X200070784Y-121829456D01*
X199906812Y-121897376D01*
X199757512Y-121927073D01*
X199732742Y-121932000D01*
X199555258Y-121932000D01*
X199530488Y-121927073D01*
X199381188Y-121897376D01*
X199217216Y-121829456D01*
X199069646Y-121730853D01*
X198944147Y-121605354D01*
X198845544Y-121457784D01*
X198777624Y-121293812D01*
X198743000Y-121119741D01*
X198743000Y-120942259D01*
X198777624Y-120768188D01*
X198845544Y-120604216D01*
X198944147Y-120456646D01*
X199069646Y-120331147D01*
X199217216Y-120232544D01*
X199381188Y-120164624D01*
X199530488Y-120134927D01*
X199555258Y-120130000D01*
X199732742Y-120130000D01*
X199757512Y-120134927D01*
G37*
G36*
X200545000Y-119392000D02*
G01*
X198743000Y-119392000D01*
X198743000Y-117590000D01*
X200545000Y-117590000D01*
X200545000Y-119392000D01*
G37*
G36*
X131689000Y-119334000D02*
G01*
X129987000Y-119334000D01*
X129987000Y-118382000D01*
X131689000Y-118382000D01*
X131689000Y-119334000D01*
G37*
G36*
X135189000Y-119334000D02*
G01*
X133487000Y-119334000D01*
X133487000Y-118382000D01*
X135189000Y-118382000D01*
X135189000Y-119334000D01*
G37*
G36*
X142809000Y-119334000D02*
G01*
X141107000Y-119334000D01*
X141107000Y-118382000D01*
X142809000Y-118382000D01*
X142809000Y-119334000D01*
G37*
G36*
X139309000Y-119334000D02*
G01*
X137607000Y-119334000D01*
X137607000Y-118382000D01*
X139309000Y-118382000D01*
X139309000Y-119334000D01*
G37*
G36*
X150429000Y-119334000D02*
G01*
X148727000Y-119334000D01*
X148727000Y-118382000D01*
X150429000Y-118382000D01*
X150429000Y-119334000D01*
G37*
G36*
X146929000Y-119334000D02*
G01*
X145227000Y-119334000D01*
X145227000Y-118382000D01*
X146929000Y-118382000D01*
X146929000Y-119334000D01*
G37*
G36*
X158049000Y-119334000D02*
G01*
X156347000Y-119334000D01*
X156347000Y-118382000D01*
X158049000Y-118382000D01*
X158049000Y-119334000D01*
G37*
G36*
X154549000Y-119334000D02*
G01*
X152847000Y-119334000D01*
X152847000Y-118382000D01*
X154549000Y-118382000D01*
X154549000Y-119334000D01*
G37*
G36*
X124069000Y-119334000D02*
G01*
X122367000Y-119334000D01*
X122367000Y-118382000D01*
X124069000Y-118382000D01*
X124069000Y-119334000D01*
G37*
G36*
X127569000Y-119334000D02*
G01*
X125867000Y-119334000D01*
X125867000Y-118382000D01*
X127569000Y-118382000D01*
X127569000Y-119334000D01*
G37*
G36*
X165669000Y-119334000D02*
G01*
X163967000Y-119334000D01*
X163967000Y-118382000D01*
X165669000Y-118382000D01*
X165669000Y-119334000D01*
G37*
G36*
X162169000Y-119334000D02*
G01*
X160467000Y-119334000D01*
X160467000Y-118382000D01*
X162169000Y-118382000D01*
X162169000Y-119334000D01*
G37*
G36*
X173289000Y-119334000D02*
G01*
X171587000Y-119334000D01*
X171587000Y-118382000D01*
X173289000Y-118382000D01*
X173289000Y-119334000D01*
G37*
G36*
X180909000Y-119334000D02*
G01*
X179207000Y-119334000D01*
X179207000Y-118382000D01*
X180909000Y-118382000D01*
X180909000Y-119334000D01*
G37*
G36*
X177409000Y-119334000D02*
G01*
X175707000Y-119334000D01*
X175707000Y-118382000D01*
X177409000Y-118382000D01*
X177409000Y-119334000D01*
G37*
G36*
X116449000Y-119334000D02*
G01*
X114747000Y-119334000D01*
X114747000Y-118382000D01*
X116449000Y-118382000D01*
X116449000Y-119334000D01*
G37*
G36*
X119949000Y-119334000D02*
G01*
X118247000Y-119334000D01*
X118247000Y-118382000D01*
X119949000Y-118382000D01*
X119949000Y-119334000D01*
G37*
G36*
X188529000Y-119334000D02*
G01*
X186827000Y-119334000D01*
X186827000Y-118382000D01*
X188529000Y-118382000D01*
X188529000Y-119334000D01*
G37*
G36*
X185029000Y-119334000D02*
G01*
X183327000Y-119334000D01*
X183327000Y-118382000D01*
X185029000Y-118382000D01*
X185029000Y-119334000D01*
G37*
G36*
X196149000Y-119334000D02*
G01*
X194447000Y-119334000D01*
X194447000Y-118382000D01*
X196149000Y-118382000D01*
X196149000Y-119334000D01*
G37*
G36*
X192649000Y-119334000D02*
G01*
X190947000Y-119334000D01*
X190947000Y-118382000D01*
X192649000Y-118382000D01*
X192649000Y-119334000D01*
G37*
G36*
X108829000Y-119334000D02*
G01*
X107127000Y-119334000D01*
X107127000Y-118382000D01*
X108829000Y-118382000D01*
X108829000Y-119334000D01*
G37*
G36*
X112329000Y-119334000D02*
G01*
X110627000Y-119334000D01*
X110627000Y-118382000D01*
X112329000Y-118382000D01*
X112329000Y-119334000D01*
G37*
G36*
X78349000Y-119334000D02*
G01*
X76647000Y-119334000D01*
X76647000Y-118382000D01*
X78349000Y-118382000D01*
X78349000Y-119334000D01*
G37*
G36*
X81849000Y-119334000D02*
G01*
X80147000Y-119334000D01*
X80147000Y-118382000D01*
X81849000Y-118382000D01*
X81849000Y-119334000D01*
G37*
G36*
X85969000Y-119334000D02*
G01*
X84267000Y-119334000D01*
X84267000Y-118382000D01*
X85969000Y-118382000D01*
X85969000Y-119334000D01*
G37*
G36*
X89469000Y-119334000D02*
G01*
X87767000Y-119334000D01*
X87767000Y-118382000D01*
X89469000Y-118382000D01*
X89469000Y-119334000D01*
G37*
G36*
X93589000Y-119334000D02*
G01*
X91887000Y-119334000D01*
X91887000Y-118382000D01*
X93589000Y-118382000D01*
X93589000Y-119334000D01*
G37*
G36*
X101209000Y-119334000D02*
G01*
X99507000Y-119334000D01*
X99507000Y-118382000D01*
X101209000Y-118382000D01*
X101209000Y-119334000D01*
G37*
G36*
X104709000Y-119334000D02*
G01*
X103007000Y-119334000D01*
X103007000Y-118382000D01*
X104709000Y-118382000D01*
X104709000Y-119334000D01*
G37*
G36*
X97089000Y-119334000D02*
G01*
X95387000Y-119334000D01*
X95387000Y-118382000D01*
X97089000Y-118382000D01*
X97089000Y-119334000D01*
G37*
G36*
X169789000Y-119334000D02*
G01*
X168087000Y-119334000D01*
X168087000Y-118382000D01*
X169789000Y-118382000D01*
X169789000Y-119334000D01*
G37*
G36*
X78349000Y-117584000D02*
G01*
X76647000Y-117584000D01*
X76647000Y-116632000D01*
X78349000Y-116632000D01*
X78349000Y-117584000D01*
G37*
G36*
X158049000Y-117584000D02*
G01*
X156347000Y-117584000D01*
X156347000Y-116632000D01*
X158049000Y-116632000D01*
X158049000Y-117584000D01*
G37*
G36*
X127569000Y-117584000D02*
G01*
X125867000Y-117584000D01*
X125867000Y-116632000D01*
X127569000Y-116632000D01*
X127569000Y-117584000D01*
G37*
G36*
X162169000Y-117584000D02*
G01*
X160467000Y-117584000D01*
X160467000Y-116632000D01*
X162169000Y-116632000D01*
X162169000Y-117584000D01*
G37*
G36*
X124069000Y-117584000D02*
G01*
X122367000Y-117584000D01*
X122367000Y-116632000D01*
X124069000Y-116632000D01*
X124069000Y-117584000D01*
G37*
G36*
X165669000Y-117584000D02*
G01*
X163967000Y-117584000D01*
X163967000Y-116632000D01*
X165669000Y-116632000D01*
X165669000Y-117584000D01*
G37*
G36*
X169789000Y-117584000D02*
G01*
X168087000Y-117584000D01*
X168087000Y-116632000D01*
X169789000Y-116632000D01*
X169789000Y-117584000D01*
G37*
G36*
X173289000Y-117584000D02*
G01*
X171587000Y-117584000D01*
X171587000Y-116632000D01*
X173289000Y-116632000D01*
X173289000Y-117584000D01*
G37*
G36*
X177409000Y-117584000D02*
G01*
X175707000Y-117584000D01*
X175707000Y-116632000D01*
X177409000Y-116632000D01*
X177409000Y-117584000D01*
G37*
G36*
X81849000Y-117584000D02*
G01*
X80147000Y-117584000D01*
X80147000Y-116632000D01*
X81849000Y-116632000D01*
X81849000Y-117584000D01*
G37*
G36*
X185029000Y-117584000D02*
G01*
X183327000Y-117584000D01*
X183327000Y-116632000D01*
X185029000Y-116632000D01*
X185029000Y-117584000D01*
G37*
G36*
X89469000Y-117584000D02*
G01*
X87767000Y-117584000D01*
X87767000Y-116632000D01*
X89469000Y-116632000D01*
X89469000Y-117584000D01*
G37*
G36*
X188529000Y-117584000D02*
G01*
X186827000Y-117584000D01*
X186827000Y-116632000D01*
X188529000Y-116632000D01*
X188529000Y-117584000D01*
G37*
G36*
X180909000Y-117584000D02*
G01*
X179207000Y-117584000D01*
X179207000Y-116632000D01*
X180909000Y-116632000D01*
X180909000Y-117584000D01*
G37*
G36*
X85969000Y-117584000D02*
G01*
X84267000Y-117584000D01*
X84267000Y-116632000D01*
X85969000Y-116632000D01*
X85969000Y-117584000D01*
G37*
G36*
X146929000Y-117584000D02*
G01*
X145227000Y-117584000D01*
X145227000Y-116632000D01*
X146929000Y-116632000D01*
X146929000Y-117584000D01*
G37*
G36*
X150429000Y-117584000D02*
G01*
X148727000Y-117584000D01*
X148727000Y-116632000D01*
X150429000Y-116632000D01*
X150429000Y-117584000D01*
G37*
G36*
X97089000Y-117584000D02*
G01*
X95387000Y-117584000D01*
X95387000Y-116632000D01*
X97089000Y-116632000D01*
X97089000Y-117584000D01*
G37*
G36*
X93589000Y-117584000D02*
G01*
X91887000Y-117584000D01*
X91887000Y-116632000D01*
X93589000Y-116632000D01*
X93589000Y-117584000D01*
G37*
G36*
X101209000Y-117584000D02*
G01*
X99507000Y-117584000D01*
X99507000Y-116632000D01*
X101209000Y-116632000D01*
X101209000Y-117584000D01*
G37*
G36*
X104709000Y-117584000D02*
G01*
X103007000Y-117584000D01*
X103007000Y-116632000D01*
X104709000Y-116632000D01*
X104709000Y-117584000D01*
G37*
G36*
X139309000Y-117584000D02*
G01*
X137607000Y-117584000D01*
X137607000Y-116632000D01*
X139309000Y-116632000D01*
X139309000Y-117584000D01*
G37*
G36*
X142809000Y-117584000D02*
G01*
X141107000Y-117584000D01*
X141107000Y-116632000D01*
X142809000Y-116632000D01*
X142809000Y-117584000D01*
G37*
G36*
X108829000Y-117584000D02*
G01*
X107127000Y-117584000D01*
X107127000Y-116632000D01*
X108829000Y-116632000D01*
X108829000Y-117584000D01*
G37*
G36*
X112329000Y-117584000D02*
G01*
X110627000Y-117584000D01*
X110627000Y-116632000D01*
X112329000Y-116632000D01*
X112329000Y-117584000D01*
G37*
G36*
X196149000Y-117584000D02*
G01*
X194447000Y-117584000D01*
X194447000Y-116632000D01*
X196149000Y-116632000D01*
X196149000Y-117584000D01*
G37*
G36*
X192649000Y-117584000D02*
G01*
X190947000Y-117584000D01*
X190947000Y-116632000D01*
X192649000Y-116632000D01*
X192649000Y-117584000D01*
G37*
G36*
X119949000Y-117584000D02*
G01*
X118247000Y-117584000D01*
X118247000Y-116632000D01*
X119949000Y-116632000D01*
X119949000Y-117584000D01*
G37*
G36*
X116449000Y-117584000D02*
G01*
X114747000Y-117584000D01*
X114747000Y-116632000D01*
X116449000Y-116632000D01*
X116449000Y-117584000D01*
G37*
G36*
X154549000Y-117584000D02*
G01*
X152847000Y-117584000D01*
X152847000Y-116632000D01*
X154549000Y-116632000D01*
X154549000Y-117584000D01*
G37*
G36*
X135189000Y-117584000D02*
G01*
X133487000Y-117584000D01*
X133487000Y-116632000D01*
X135189000Y-116632000D01*
X135189000Y-117584000D01*
G37*
G36*
X131689000Y-117584000D02*
G01*
X129987000Y-117584000D01*
X129987000Y-116632000D01*
X131689000Y-116632000D01*
X131689000Y-117584000D01*
G37*
G36*
X116449000Y-114254000D02*
G01*
X114747000Y-114254000D01*
X114747000Y-113302000D01*
X116449000Y-113302000D01*
X116449000Y-114254000D01*
G37*
G36*
X112329000Y-114254000D02*
G01*
X110627000Y-114254000D01*
X110627000Y-113302000D01*
X112329000Y-113302000D01*
X112329000Y-114254000D01*
G37*
G36*
X119949000Y-114254000D02*
G01*
X118247000Y-114254000D01*
X118247000Y-113302000D01*
X119949000Y-113302000D01*
X119949000Y-114254000D01*
G37*
G36*
X124069000Y-114254000D02*
G01*
X122367000Y-114254000D01*
X122367000Y-113302000D01*
X124069000Y-113302000D01*
X124069000Y-114254000D01*
G37*
G36*
X142809000Y-114254000D02*
G01*
X141107000Y-114254000D01*
X141107000Y-113302000D01*
X142809000Y-113302000D01*
X142809000Y-114254000D01*
G37*
G36*
X139309000Y-114254000D02*
G01*
X137607000Y-114254000D01*
X137607000Y-113302000D01*
X139309000Y-113302000D01*
X139309000Y-114254000D01*
G37*
G36*
X135189000Y-114254000D02*
G01*
X133487000Y-114254000D01*
X133487000Y-113302000D01*
X135189000Y-113302000D01*
X135189000Y-114254000D01*
G37*
G36*
X131689000Y-114254000D02*
G01*
X129987000Y-114254000D01*
X129987000Y-113302000D01*
X131689000Y-113302000D01*
X131689000Y-114254000D01*
G37*
G36*
X180909000Y-114254000D02*
G01*
X179207000Y-114254000D01*
X179207000Y-113302000D01*
X180909000Y-113302000D01*
X180909000Y-114254000D01*
G37*
G36*
X165669000Y-114254000D02*
G01*
X163967000Y-114254000D01*
X163967000Y-113302000D01*
X165669000Y-113302000D01*
X165669000Y-114254000D01*
G37*
G36*
X177409000Y-114254000D02*
G01*
X175707000Y-114254000D01*
X175707000Y-113302000D01*
X177409000Y-113302000D01*
X177409000Y-114254000D01*
G37*
G36*
X78349000Y-114254000D02*
G01*
X76647000Y-114254000D01*
X76647000Y-113302000D01*
X78349000Y-113302000D01*
X78349000Y-114254000D01*
G37*
G36*
X108829000Y-114254000D02*
G01*
X107127000Y-114254000D01*
X107127000Y-113302000D01*
X108829000Y-113302000D01*
X108829000Y-114254000D01*
G37*
G36*
X104709000Y-114254000D02*
G01*
X103007000Y-114254000D01*
X103007000Y-113302000D01*
X104709000Y-113302000D01*
X104709000Y-114254000D01*
G37*
G36*
X101209000Y-114254000D02*
G01*
X99507000Y-114254000D01*
X99507000Y-113302000D01*
X101209000Y-113302000D01*
X101209000Y-114254000D01*
G37*
G36*
X81849000Y-114254000D02*
G01*
X80147000Y-114254000D01*
X80147000Y-113302000D01*
X81849000Y-113302000D01*
X81849000Y-114254000D01*
G37*
G36*
X89469000Y-114254000D02*
G01*
X87767000Y-114254000D01*
X87767000Y-113302000D01*
X89469000Y-113302000D01*
X89469000Y-114254000D01*
G37*
G36*
X85969000Y-114254000D02*
G01*
X84267000Y-114254000D01*
X84267000Y-113302000D01*
X85969000Y-113302000D01*
X85969000Y-114254000D01*
G37*
G36*
X146929000Y-114254000D02*
G01*
X145227000Y-114254000D01*
X145227000Y-113302000D01*
X146929000Y-113302000D01*
X146929000Y-114254000D01*
G37*
G36*
X150429000Y-114254000D02*
G01*
X148727000Y-114254000D01*
X148727000Y-113302000D01*
X150429000Y-113302000D01*
X150429000Y-114254000D01*
G37*
G36*
X154549000Y-114254000D02*
G01*
X152847000Y-114254000D01*
X152847000Y-113302000D01*
X154549000Y-113302000D01*
X154549000Y-114254000D01*
G37*
G36*
X158049000Y-114254000D02*
G01*
X156347000Y-114254000D01*
X156347000Y-113302000D01*
X158049000Y-113302000D01*
X158049000Y-114254000D01*
G37*
G36*
X162169000Y-114254000D02*
G01*
X160467000Y-114254000D01*
X160467000Y-113302000D01*
X162169000Y-113302000D01*
X162169000Y-114254000D01*
G37*
G36*
X97089000Y-114254000D02*
G01*
X95387000Y-114254000D01*
X95387000Y-113302000D01*
X97089000Y-113302000D01*
X97089000Y-114254000D01*
G37*
G36*
X93589000Y-114254000D02*
G01*
X91887000Y-114254000D01*
X91887000Y-113302000D01*
X93589000Y-113302000D01*
X93589000Y-114254000D01*
G37*
G36*
X196149000Y-114254000D02*
G01*
X194447000Y-114254000D01*
X194447000Y-113302000D01*
X196149000Y-113302000D01*
X196149000Y-114254000D01*
G37*
G36*
X192649000Y-114254000D02*
G01*
X190947000Y-114254000D01*
X190947000Y-113302000D01*
X192649000Y-113302000D01*
X192649000Y-114254000D01*
G37*
G36*
X185029000Y-114254000D02*
G01*
X183327000Y-114254000D01*
X183327000Y-113302000D01*
X185029000Y-113302000D01*
X185029000Y-114254000D01*
G37*
G36*
X169789000Y-114254000D02*
G01*
X168087000Y-114254000D01*
X168087000Y-113302000D01*
X169789000Y-113302000D01*
X169789000Y-114254000D01*
G37*
G36*
X188529000Y-114254000D02*
G01*
X186827000Y-114254000D01*
X186827000Y-113302000D01*
X188529000Y-113302000D01*
X188529000Y-114254000D01*
G37*
G36*
X173289000Y-114254000D02*
G01*
X171587000Y-114254000D01*
X171587000Y-113302000D01*
X173289000Y-113302000D01*
X173289000Y-114254000D01*
G37*
G36*
X127569000Y-114254000D02*
G01*
X125867000Y-114254000D01*
X125867000Y-113302000D01*
X127569000Y-113302000D01*
X127569000Y-114254000D01*
G37*
G36*
X127569000Y-112504000D02*
G01*
X125867000Y-112504000D01*
X125867000Y-111552000D01*
X127569000Y-111552000D01*
X127569000Y-112504000D01*
G37*
G36*
X192649000Y-112504000D02*
G01*
X190947000Y-112504000D01*
X190947000Y-111552000D01*
X192649000Y-111552000D01*
X192649000Y-112504000D01*
G37*
G36*
X108829000Y-112504000D02*
G01*
X107127000Y-112504000D01*
X107127000Y-111552000D01*
X108829000Y-111552000D01*
X108829000Y-112504000D01*
G37*
G36*
X139309000Y-112504000D02*
G01*
X137607000Y-112504000D01*
X137607000Y-111552000D01*
X139309000Y-111552000D01*
X139309000Y-112504000D01*
G37*
G36*
X135189000Y-112504000D02*
G01*
X133487000Y-112504000D01*
X133487000Y-111552000D01*
X135189000Y-111552000D01*
X135189000Y-112504000D01*
G37*
G36*
X142809000Y-112504000D02*
G01*
X141107000Y-112504000D01*
X141107000Y-111552000D01*
X142809000Y-111552000D01*
X142809000Y-112504000D01*
G37*
G36*
X104709000Y-112504000D02*
G01*
X103007000Y-112504000D01*
X103007000Y-111552000D01*
X104709000Y-111552000D01*
X104709000Y-112504000D01*
G37*
G36*
X196149000Y-112504000D02*
G01*
X194447000Y-112504000D01*
X194447000Y-111552000D01*
X196149000Y-111552000D01*
X196149000Y-112504000D01*
G37*
G36*
X112329000Y-112504000D02*
G01*
X110627000Y-112504000D01*
X110627000Y-111552000D01*
X112329000Y-111552000D01*
X112329000Y-112504000D01*
G37*
G36*
X116449000Y-112504000D02*
G01*
X114747000Y-112504000D01*
X114747000Y-111552000D01*
X116449000Y-111552000D01*
X116449000Y-112504000D01*
G37*
G36*
X101209000Y-112504000D02*
G01*
X99507000Y-112504000D01*
X99507000Y-111552000D01*
X101209000Y-111552000D01*
X101209000Y-112504000D01*
G37*
G36*
X131689000Y-112504000D02*
G01*
X129987000Y-112504000D01*
X129987000Y-111552000D01*
X131689000Y-111552000D01*
X131689000Y-112504000D01*
G37*
G36*
X93589000Y-112504000D02*
G01*
X91887000Y-112504000D01*
X91887000Y-111552000D01*
X93589000Y-111552000D01*
X93589000Y-112504000D01*
G37*
G36*
X78349000Y-112504000D02*
G01*
X76647000Y-112504000D01*
X76647000Y-111552000D01*
X78349000Y-111552000D01*
X78349000Y-112504000D01*
G37*
G36*
X173289000Y-112504000D02*
G01*
X171587000Y-112504000D01*
X171587000Y-111552000D01*
X173289000Y-111552000D01*
X173289000Y-112504000D01*
G37*
G36*
X188529000Y-112504000D02*
G01*
X186827000Y-112504000D01*
X186827000Y-111552000D01*
X188529000Y-111552000D01*
X188529000Y-112504000D01*
G37*
G36*
X169789000Y-112504000D02*
G01*
X168087000Y-112504000D01*
X168087000Y-111552000D01*
X169789000Y-111552000D01*
X169789000Y-112504000D01*
G37*
G36*
X97089000Y-112504000D02*
G01*
X95387000Y-112504000D01*
X95387000Y-111552000D01*
X97089000Y-111552000D01*
X97089000Y-112504000D01*
G37*
G36*
X81849000Y-112504000D02*
G01*
X80147000Y-112504000D01*
X80147000Y-111552000D01*
X81849000Y-111552000D01*
X81849000Y-112504000D01*
G37*
G36*
X158049000Y-112504000D02*
G01*
X156347000Y-112504000D01*
X156347000Y-111552000D01*
X158049000Y-111552000D01*
X158049000Y-112504000D01*
G37*
G36*
X185029000Y-112504000D02*
G01*
X183327000Y-112504000D01*
X183327000Y-111552000D01*
X185029000Y-111552000D01*
X185029000Y-112504000D01*
G37*
G36*
X150429000Y-112504000D02*
G01*
X148727000Y-112504000D01*
X148727000Y-111552000D01*
X150429000Y-111552000D01*
X150429000Y-112504000D01*
G37*
G36*
X180909000Y-112504000D02*
G01*
X179207000Y-112504000D01*
X179207000Y-111552000D01*
X180909000Y-111552000D01*
X180909000Y-112504000D01*
G37*
G36*
X146929000Y-112504000D02*
G01*
X145227000Y-112504000D01*
X145227000Y-111552000D01*
X146929000Y-111552000D01*
X146929000Y-112504000D01*
G37*
G36*
X177409000Y-112504000D02*
G01*
X175707000Y-112504000D01*
X175707000Y-111552000D01*
X177409000Y-111552000D01*
X177409000Y-112504000D01*
G37*
G36*
X154549000Y-112504000D02*
G01*
X152847000Y-112504000D01*
X152847000Y-111552000D01*
X154549000Y-111552000D01*
X154549000Y-112504000D01*
G37*
G36*
X165669000Y-112504000D02*
G01*
X163967000Y-112504000D01*
X163967000Y-111552000D01*
X165669000Y-111552000D01*
X165669000Y-112504000D01*
G37*
G36*
X162169000Y-112504000D02*
G01*
X160467000Y-112504000D01*
X160467000Y-111552000D01*
X162169000Y-111552000D01*
X162169000Y-112504000D01*
G37*
G36*
X85969000Y-112504000D02*
G01*
X84267000Y-112504000D01*
X84267000Y-111552000D01*
X85969000Y-111552000D01*
X85969000Y-112504000D01*
G37*
G36*
X124069000Y-112504000D02*
G01*
X122367000Y-112504000D01*
X122367000Y-111552000D01*
X124069000Y-111552000D01*
X124069000Y-112504000D01*
G37*
G36*
X119949000Y-112504000D02*
G01*
X118247000Y-112504000D01*
X118247000Y-111552000D01*
X119949000Y-111552000D01*
X119949000Y-112504000D01*
G37*
G36*
X89469000Y-112504000D02*
G01*
X87767000Y-112504000D01*
X87767000Y-111552000D01*
X89469000Y-111552000D01*
X89469000Y-112504000D01*
G37*
G36*
X112329000Y-109174000D02*
G01*
X110627000Y-109174000D01*
X110627000Y-108222000D01*
X112329000Y-108222000D01*
X112329000Y-109174000D01*
G37*
G36*
X150429000Y-109174000D02*
G01*
X148727000Y-109174000D01*
X148727000Y-108222000D01*
X150429000Y-108222000D01*
X150429000Y-109174000D01*
G37*
G36*
X180909000Y-109174000D02*
G01*
X179207000Y-109174000D01*
X179207000Y-108222000D01*
X180909000Y-108222000D01*
X180909000Y-109174000D01*
G37*
G36*
X154549000Y-109174000D02*
G01*
X152847000Y-109174000D01*
X152847000Y-108222000D01*
X154549000Y-108222000D01*
X154549000Y-109174000D01*
G37*
G36*
X158049000Y-109174000D02*
G01*
X156347000Y-109174000D01*
X156347000Y-108222000D01*
X158049000Y-108222000D01*
X158049000Y-109174000D01*
G37*
G36*
X185029000Y-109174000D02*
G01*
X183327000Y-109174000D01*
X183327000Y-108222000D01*
X185029000Y-108222000D01*
X185029000Y-109174000D01*
G37*
G36*
X142809000Y-109174000D02*
G01*
X141107000Y-109174000D01*
X141107000Y-108222000D01*
X142809000Y-108222000D01*
X142809000Y-109174000D01*
G37*
G36*
X146929000Y-109174000D02*
G01*
X145227000Y-109174000D01*
X145227000Y-108222000D01*
X146929000Y-108222000D01*
X146929000Y-109174000D01*
G37*
G36*
X165669000Y-109174000D02*
G01*
X163967000Y-109174000D01*
X163967000Y-108222000D01*
X165669000Y-108222000D01*
X165669000Y-109174000D01*
G37*
G36*
X162169000Y-109174000D02*
G01*
X160467000Y-109174000D01*
X160467000Y-108222000D01*
X162169000Y-108222000D01*
X162169000Y-109174000D01*
G37*
G36*
X139309000Y-109174000D02*
G01*
X137607000Y-109174000D01*
X137607000Y-108222000D01*
X139309000Y-108222000D01*
X139309000Y-109174000D01*
G37*
G36*
X135189000Y-109174000D02*
G01*
X133487000Y-109174000D01*
X133487000Y-108222000D01*
X135189000Y-108222000D01*
X135189000Y-109174000D01*
G37*
G36*
X116449000Y-109174000D02*
G01*
X114747000Y-109174000D01*
X114747000Y-108222000D01*
X116449000Y-108222000D01*
X116449000Y-109174000D01*
G37*
G36*
X97089000Y-109174000D02*
G01*
X95387000Y-109174000D01*
X95387000Y-108222000D01*
X97089000Y-108222000D01*
X97089000Y-109174000D01*
G37*
G36*
X89469000Y-109174000D02*
G01*
X87767000Y-109174000D01*
X87767000Y-108222000D01*
X89469000Y-108222000D01*
X89469000Y-109174000D01*
G37*
G36*
X124069000Y-109174000D02*
G01*
X122367000Y-109174000D01*
X122367000Y-108222000D01*
X124069000Y-108222000D01*
X124069000Y-109174000D01*
G37*
G36*
X85969000Y-109174000D02*
G01*
X84267000Y-109174000D01*
X84267000Y-108222000D01*
X85969000Y-108222000D01*
X85969000Y-109174000D01*
G37*
G36*
X93589000Y-109174000D02*
G01*
X91887000Y-109174000D01*
X91887000Y-108222000D01*
X93589000Y-108222000D01*
X93589000Y-109174000D01*
G37*
G36*
X78349000Y-109174000D02*
G01*
X76647000Y-109174000D01*
X76647000Y-108222000D01*
X78349000Y-108222000D01*
X78349000Y-109174000D01*
G37*
G36*
X127569000Y-109174000D02*
G01*
X125867000Y-109174000D01*
X125867000Y-108222000D01*
X127569000Y-108222000D01*
X127569000Y-109174000D01*
G37*
G36*
X81849000Y-109174000D02*
G01*
X80147000Y-109174000D01*
X80147000Y-108222000D01*
X81849000Y-108222000D01*
X81849000Y-109174000D01*
G37*
G36*
X108829000Y-109174000D02*
G01*
X107127000Y-109174000D01*
X107127000Y-108222000D01*
X108829000Y-108222000D01*
X108829000Y-109174000D01*
G37*
G36*
X173289000Y-109174000D02*
G01*
X171587000Y-109174000D01*
X171587000Y-108222000D01*
X173289000Y-108222000D01*
X173289000Y-109174000D01*
G37*
G36*
X188529000Y-109174000D02*
G01*
X186827000Y-109174000D01*
X186827000Y-108222000D01*
X188529000Y-108222000D01*
X188529000Y-109174000D01*
G37*
G36*
X169789000Y-109174000D02*
G01*
X168087000Y-109174000D01*
X168087000Y-108222000D01*
X169789000Y-108222000D01*
X169789000Y-109174000D01*
G37*
G36*
X192649000Y-109174000D02*
G01*
X190947000Y-109174000D01*
X190947000Y-108222000D01*
X192649000Y-108222000D01*
X192649000Y-109174000D01*
G37*
G36*
X196149000Y-109174000D02*
G01*
X194447000Y-109174000D01*
X194447000Y-108222000D01*
X196149000Y-108222000D01*
X196149000Y-109174000D01*
G37*
G36*
X131689000Y-109174000D02*
G01*
X129987000Y-109174000D01*
X129987000Y-108222000D01*
X131689000Y-108222000D01*
X131689000Y-109174000D01*
G37*
G36*
X177409000Y-109174000D02*
G01*
X175707000Y-109174000D01*
X175707000Y-108222000D01*
X177409000Y-108222000D01*
X177409000Y-109174000D01*
G37*
G36*
X119949000Y-109174000D02*
G01*
X118247000Y-109174000D01*
X118247000Y-108222000D01*
X119949000Y-108222000D01*
X119949000Y-109174000D01*
G37*
G36*
X101209000Y-109174000D02*
G01*
X99507000Y-109174000D01*
X99507000Y-108222000D01*
X101209000Y-108222000D01*
X101209000Y-109174000D01*
G37*
G36*
X104709000Y-109174000D02*
G01*
X103007000Y-109174000D01*
X103007000Y-108222000D01*
X104709000Y-108222000D01*
X104709000Y-109174000D01*
G37*
G36*
X104709000Y-107424000D02*
G01*
X103007000Y-107424000D01*
X103007000Y-106472000D01*
X104709000Y-106472000D01*
X104709000Y-107424000D01*
G37*
G36*
X185029000Y-107424000D02*
G01*
X183327000Y-107424000D01*
X183327000Y-106472000D01*
X185029000Y-106472000D01*
X185029000Y-107424000D01*
G37*
G36*
X135189000Y-107424000D02*
G01*
X133487000Y-107424000D01*
X133487000Y-106472000D01*
X135189000Y-106472000D01*
X135189000Y-107424000D01*
G37*
G36*
X180909000Y-107424000D02*
G01*
X179207000Y-107424000D01*
X179207000Y-106472000D01*
X180909000Y-106472000D01*
X180909000Y-107424000D01*
G37*
G36*
X131689000Y-107424000D02*
G01*
X129987000Y-107424000D01*
X129987000Y-106472000D01*
X131689000Y-106472000D01*
X131689000Y-107424000D01*
G37*
G36*
X177409000Y-107424000D02*
G01*
X175707000Y-107424000D01*
X175707000Y-106472000D01*
X177409000Y-106472000D01*
X177409000Y-107424000D01*
G37*
G36*
X173289000Y-107424000D02*
G01*
X171587000Y-107424000D01*
X171587000Y-106472000D01*
X173289000Y-106472000D01*
X173289000Y-107424000D01*
G37*
G36*
X169789000Y-107424000D02*
G01*
X168087000Y-107424000D01*
X168087000Y-106472000D01*
X169789000Y-106472000D01*
X169789000Y-107424000D01*
G37*
G36*
X165669000Y-107424000D02*
G01*
X163967000Y-107424000D01*
X163967000Y-106472000D01*
X165669000Y-106472000D01*
X165669000Y-107424000D01*
G37*
G36*
X139309000Y-107424000D02*
G01*
X137607000Y-107424000D01*
X137607000Y-106472000D01*
X139309000Y-106472000D01*
X139309000Y-107424000D01*
G37*
G36*
X162169000Y-107424000D02*
G01*
X160467000Y-107424000D01*
X160467000Y-106472000D01*
X162169000Y-106472000D01*
X162169000Y-107424000D01*
G37*
G36*
X158049000Y-107424000D02*
G01*
X156347000Y-107424000D01*
X156347000Y-106472000D01*
X158049000Y-106472000D01*
X158049000Y-107424000D01*
G37*
G36*
X101209000Y-107424000D02*
G01*
X99507000Y-107424000D01*
X99507000Y-106472000D01*
X101209000Y-106472000D01*
X101209000Y-107424000D01*
G37*
G36*
X154549000Y-107424000D02*
G01*
X152847000Y-107424000D01*
X152847000Y-106472000D01*
X154549000Y-106472000D01*
X154549000Y-107424000D01*
G37*
G36*
X142809000Y-107424000D02*
G01*
X141107000Y-107424000D01*
X141107000Y-106472000D01*
X142809000Y-106472000D01*
X142809000Y-107424000D01*
G37*
G36*
X188529000Y-107424000D02*
G01*
X186827000Y-107424000D01*
X186827000Y-106472000D01*
X188529000Y-106472000D01*
X188529000Y-107424000D01*
G37*
G36*
X150429000Y-107424000D02*
G01*
X148727000Y-107424000D01*
X148727000Y-106472000D01*
X150429000Y-106472000D01*
X150429000Y-107424000D01*
G37*
G36*
X192649000Y-107424000D02*
G01*
X190947000Y-107424000D01*
X190947000Y-106472000D01*
X192649000Y-106472000D01*
X192649000Y-107424000D01*
G37*
G36*
X196149000Y-107424000D02*
G01*
X194447000Y-107424000D01*
X194447000Y-106472000D01*
X196149000Y-106472000D01*
X196149000Y-107424000D01*
G37*
G36*
X93589000Y-107424000D02*
G01*
X91887000Y-107424000D01*
X91887000Y-106472000D01*
X93589000Y-106472000D01*
X93589000Y-107424000D01*
G37*
G36*
X97089000Y-107424000D02*
G01*
X95387000Y-107424000D01*
X95387000Y-106472000D01*
X97089000Y-106472000D01*
X97089000Y-107424000D01*
G37*
G36*
X146929000Y-107424000D02*
G01*
X145227000Y-107424000D01*
X145227000Y-106472000D01*
X146929000Y-106472000D01*
X146929000Y-107424000D01*
G37*
G36*
X127569000Y-107424000D02*
G01*
X125867000Y-107424000D01*
X125867000Y-106472000D01*
X127569000Y-106472000D01*
X127569000Y-107424000D01*
G37*
G36*
X124069000Y-107424000D02*
G01*
X122367000Y-107424000D01*
X122367000Y-106472000D01*
X124069000Y-106472000D01*
X124069000Y-107424000D01*
G37*
G36*
X119949000Y-107424000D02*
G01*
X118247000Y-107424000D01*
X118247000Y-106472000D01*
X119949000Y-106472000D01*
X119949000Y-107424000D01*
G37*
G36*
X112329000Y-107424000D02*
G01*
X110627000Y-107424000D01*
X110627000Y-106472000D01*
X112329000Y-106472000D01*
X112329000Y-107424000D01*
G37*
G36*
X116449000Y-107424000D02*
G01*
X114747000Y-107424000D01*
X114747000Y-106472000D01*
X116449000Y-106472000D01*
X116449000Y-107424000D01*
G37*
G36*
X108829000Y-107424000D02*
G01*
X107127000Y-107424000D01*
X107127000Y-106472000D01*
X108829000Y-106472000D01*
X108829000Y-107424000D01*
G37*
G36*
X81849000Y-107424000D02*
G01*
X80147000Y-107424000D01*
X80147000Y-106472000D01*
X81849000Y-106472000D01*
X81849000Y-107424000D01*
G37*
G36*
X85969000Y-107424000D02*
G01*
X84267000Y-107424000D01*
X84267000Y-106472000D01*
X85969000Y-106472000D01*
X85969000Y-107424000D01*
G37*
G36*
X89469000Y-107424000D02*
G01*
X87767000Y-107424000D01*
X87767000Y-106472000D01*
X89469000Y-106472000D01*
X89469000Y-107424000D01*
G37*
G36*
X78349000Y-107424000D02*
G01*
X76647000Y-107424000D01*
X76647000Y-106472000D01*
X78349000Y-106472000D01*
X78349000Y-107424000D01*
G37*
G36*
X173289000Y-104094000D02*
G01*
X171587000Y-104094000D01*
X171587000Y-103142000D01*
X173289000Y-103142000D01*
X173289000Y-104094000D01*
G37*
G36*
X169789000Y-104094000D02*
G01*
X168087000Y-104094000D01*
X168087000Y-103142000D01*
X169789000Y-103142000D01*
X169789000Y-104094000D01*
G37*
G36*
X127569000Y-104094000D02*
G01*
X125867000Y-104094000D01*
X125867000Y-103142000D01*
X127569000Y-103142000D01*
X127569000Y-104094000D01*
G37*
G36*
X180909000Y-104094000D02*
G01*
X179207000Y-104094000D01*
X179207000Y-103142000D01*
X180909000Y-103142000D01*
X180909000Y-104094000D01*
G37*
G36*
X108829000Y-104094000D02*
G01*
X107127000Y-104094000D01*
X107127000Y-103142000D01*
X108829000Y-103142000D01*
X108829000Y-104094000D01*
G37*
G36*
X177409000Y-104094000D02*
G01*
X175707000Y-104094000D01*
X175707000Y-103142000D01*
X177409000Y-103142000D01*
X177409000Y-104094000D01*
G37*
G36*
X112329000Y-104094000D02*
G01*
X110627000Y-104094000D01*
X110627000Y-103142000D01*
X112329000Y-103142000D01*
X112329000Y-104094000D01*
G37*
G36*
X165669000Y-104094000D02*
G01*
X163967000Y-104094000D01*
X163967000Y-103142000D01*
X165669000Y-103142000D01*
X165669000Y-104094000D01*
G37*
G36*
X154549000Y-104094000D02*
G01*
X152847000Y-104094000D01*
X152847000Y-103142000D01*
X154549000Y-103142000D01*
X154549000Y-104094000D01*
G37*
G36*
X162169000Y-104094000D02*
G01*
X160467000Y-104094000D01*
X160467000Y-103142000D01*
X162169000Y-103142000D01*
X162169000Y-104094000D01*
G37*
G36*
X158049000Y-104094000D02*
G01*
X156347000Y-104094000D01*
X156347000Y-103142000D01*
X158049000Y-103142000D01*
X158049000Y-104094000D01*
G37*
G36*
X101209000Y-104094000D02*
G01*
X99507000Y-104094000D01*
X99507000Y-103142000D01*
X101209000Y-103142000D01*
X101209000Y-104094000D01*
G37*
G36*
X124069000Y-104094000D02*
G01*
X122367000Y-104094000D01*
X122367000Y-103142000D01*
X124069000Y-103142000D01*
X124069000Y-104094000D01*
G37*
G36*
X104709000Y-104094000D02*
G01*
X103007000Y-104094000D01*
X103007000Y-103142000D01*
X104709000Y-103142000D01*
X104709000Y-104094000D01*
G37*
G36*
X78349000Y-104094000D02*
G01*
X76647000Y-104094000D01*
X76647000Y-103142000D01*
X78349000Y-103142000D01*
X78349000Y-104094000D01*
G37*
G36*
X81849000Y-104094000D02*
G01*
X80147000Y-104094000D01*
X80147000Y-103142000D01*
X81849000Y-103142000D01*
X81849000Y-104094000D01*
G37*
G36*
X93589000Y-104094000D02*
G01*
X91887000Y-104094000D01*
X91887000Y-103142000D01*
X93589000Y-103142000D01*
X93589000Y-104094000D01*
G37*
G36*
X85969000Y-104094000D02*
G01*
X84267000Y-104094000D01*
X84267000Y-103142000D01*
X85969000Y-103142000D01*
X85969000Y-104094000D01*
G37*
G36*
X97089000Y-104094000D02*
G01*
X95387000Y-104094000D01*
X95387000Y-103142000D01*
X97089000Y-103142000D01*
X97089000Y-104094000D01*
G37*
G36*
X89469000Y-104094000D02*
G01*
X87767000Y-104094000D01*
X87767000Y-103142000D01*
X89469000Y-103142000D01*
X89469000Y-104094000D01*
G37*
G36*
X192649000Y-104094000D02*
G01*
X190947000Y-104094000D01*
X190947000Y-103142000D01*
X192649000Y-103142000D01*
X192649000Y-104094000D01*
G37*
G36*
X196149000Y-104094000D02*
G01*
X194447000Y-104094000D01*
X194447000Y-103142000D01*
X196149000Y-103142000D01*
X196149000Y-104094000D01*
G37*
G36*
X150429000Y-104094000D02*
G01*
X148727000Y-104094000D01*
X148727000Y-103142000D01*
X150429000Y-103142000D01*
X150429000Y-104094000D01*
G37*
G36*
X146929000Y-104094000D02*
G01*
X145227000Y-104094000D01*
X145227000Y-103142000D01*
X146929000Y-103142000D01*
X146929000Y-104094000D01*
G37*
G36*
X119949000Y-104094000D02*
G01*
X118247000Y-104094000D01*
X118247000Y-103142000D01*
X119949000Y-103142000D01*
X119949000Y-104094000D01*
G37*
G36*
X142809000Y-104094000D02*
G01*
X141107000Y-104094000D01*
X141107000Y-103142000D01*
X142809000Y-103142000D01*
X142809000Y-104094000D01*
G37*
G36*
X139309000Y-104094000D02*
G01*
X137607000Y-104094000D01*
X137607000Y-103142000D01*
X139309000Y-103142000D01*
X139309000Y-104094000D01*
G37*
G36*
X116449000Y-104094000D02*
G01*
X114747000Y-104094000D01*
X114747000Y-103142000D01*
X116449000Y-103142000D01*
X116449000Y-104094000D01*
G37*
G36*
X135189000Y-104094000D02*
G01*
X133487000Y-104094000D01*
X133487000Y-103142000D01*
X135189000Y-103142000D01*
X135189000Y-104094000D01*
G37*
G36*
X131689000Y-104094000D02*
G01*
X129987000Y-104094000D01*
X129987000Y-103142000D01*
X131689000Y-103142000D01*
X131689000Y-104094000D01*
G37*
G36*
X188529000Y-104094000D02*
G01*
X186827000Y-104094000D01*
X186827000Y-103142000D01*
X188529000Y-103142000D01*
X188529000Y-104094000D01*
G37*
G36*
X185029000Y-104094000D02*
G01*
X183327000Y-104094000D01*
X183327000Y-103142000D01*
X185029000Y-103142000D01*
X185029000Y-104094000D01*
G37*
G36*
X71368228Y-101884703D02*
G01*
X71523100Y-101948853D01*
X71662481Y-102041985D01*
X71781015Y-102160519D01*
X71874147Y-102299900D01*
X71938297Y-102454772D01*
X71971000Y-102619184D01*
X71971000Y-102786816D01*
X71938297Y-102951228D01*
X71874147Y-103106100D01*
X71781015Y-103245481D01*
X71662481Y-103364015D01*
X71523100Y-103457147D01*
X71368228Y-103521297D01*
X71203816Y-103554000D01*
X71036184Y-103554000D01*
X70871772Y-103521297D01*
X70716900Y-103457147D01*
X70577519Y-103364015D01*
X70458985Y-103245481D01*
X70365853Y-103106100D01*
X70301703Y-102951228D01*
X70269000Y-102786816D01*
X70269000Y-102619184D01*
X70301703Y-102454772D01*
X70365853Y-102299900D01*
X70458985Y-102160519D01*
X70577519Y-102041985D01*
X70716900Y-101948853D01*
X70871772Y-101884703D01*
X71036184Y-101852000D01*
X71203816Y-101852000D01*
X71368228Y-101884703D01*
G37*
G36*
X150429000Y-102344000D02*
G01*
X148727000Y-102344000D01*
X148727000Y-101392000D01*
X150429000Y-101392000D01*
X150429000Y-102344000D01*
G37*
G36*
X188529000Y-102344000D02*
G01*
X186827000Y-102344000D01*
X186827000Y-101392000D01*
X188529000Y-101392000D01*
X188529000Y-102344000D01*
G37*
G36*
X146929000Y-102344000D02*
G01*
X145227000Y-102344000D01*
X145227000Y-101392000D01*
X146929000Y-101392000D01*
X146929000Y-102344000D01*
G37*
G36*
X116449000Y-102344000D02*
G01*
X114747000Y-102344000D01*
X114747000Y-101392000D01*
X116449000Y-101392000D01*
X116449000Y-102344000D01*
G37*
G36*
X185029000Y-102344000D02*
G01*
X183327000Y-102344000D01*
X183327000Y-101392000D01*
X185029000Y-101392000D01*
X185029000Y-102344000D01*
G37*
G36*
X131689000Y-102344000D02*
G01*
X129987000Y-102344000D01*
X129987000Y-101392000D01*
X131689000Y-101392000D01*
X131689000Y-102344000D01*
G37*
G36*
X81849000Y-102344000D02*
G01*
X80147000Y-102344000D01*
X80147000Y-101392000D01*
X81849000Y-101392000D01*
X81849000Y-102344000D01*
G37*
G36*
X139309000Y-102344000D02*
G01*
X137607000Y-102344000D01*
X137607000Y-101392000D01*
X139309000Y-101392000D01*
X139309000Y-102344000D01*
G37*
G36*
X78349000Y-102344000D02*
G01*
X76647000Y-102344000D01*
X76647000Y-101392000D01*
X78349000Y-101392000D01*
X78349000Y-102344000D01*
G37*
G36*
X142809000Y-102344000D02*
G01*
X141107000Y-102344000D01*
X141107000Y-101392000D01*
X142809000Y-101392000D01*
X142809000Y-102344000D01*
G37*
G36*
X89469000Y-102344000D02*
G01*
X87767000Y-102344000D01*
X87767000Y-101392000D01*
X89469000Y-101392000D01*
X89469000Y-102344000D01*
G37*
G36*
X85969000Y-102344000D02*
G01*
X84267000Y-102344000D01*
X84267000Y-101392000D01*
X85969000Y-101392000D01*
X85969000Y-102344000D01*
G37*
G36*
X119949000Y-102344000D02*
G01*
X118247000Y-102344000D01*
X118247000Y-101392000D01*
X119949000Y-101392000D01*
X119949000Y-102344000D01*
G37*
G36*
X162169000Y-102344000D02*
G01*
X160467000Y-102344000D01*
X160467000Y-101392000D01*
X162169000Y-101392000D01*
X162169000Y-102344000D01*
G37*
G36*
X196149000Y-102344000D02*
G01*
X194447000Y-102344000D01*
X194447000Y-101392000D01*
X196149000Y-101392000D01*
X196149000Y-102344000D01*
G37*
G36*
X192649000Y-102344000D02*
G01*
X190947000Y-102344000D01*
X190947000Y-101392000D01*
X192649000Y-101392000D01*
X192649000Y-102344000D01*
G37*
G36*
X97089000Y-102344000D02*
G01*
X95387000Y-102344000D01*
X95387000Y-101392000D01*
X97089000Y-101392000D01*
X97089000Y-102344000D01*
G37*
G36*
X93589000Y-102344000D02*
G01*
X91887000Y-102344000D01*
X91887000Y-101392000D01*
X93589000Y-101392000D01*
X93589000Y-102344000D01*
G37*
G36*
X165669000Y-102344000D02*
G01*
X163967000Y-102344000D01*
X163967000Y-101392000D01*
X165669000Y-101392000D01*
X165669000Y-102344000D01*
G37*
G36*
X135189000Y-102344000D02*
G01*
X133487000Y-102344000D01*
X133487000Y-101392000D01*
X135189000Y-101392000D01*
X135189000Y-102344000D01*
G37*
G36*
X180909000Y-102344000D02*
G01*
X179207000Y-102344000D01*
X179207000Y-101392000D01*
X180909000Y-101392000D01*
X180909000Y-102344000D01*
G37*
G36*
X124069000Y-102344000D02*
G01*
X122367000Y-102344000D01*
X122367000Y-101392000D01*
X124069000Y-101392000D01*
X124069000Y-102344000D01*
G37*
G36*
X177409000Y-102344000D02*
G01*
X175707000Y-102344000D01*
X175707000Y-101392000D01*
X177409000Y-101392000D01*
X177409000Y-102344000D01*
G37*
G36*
X104709000Y-102344000D02*
G01*
X103007000Y-102344000D01*
X103007000Y-101392000D01*
X104709000Y-101392000D01*
X104709000Y-102344000D01*
G37*
G36*
X173289000Y-102344000D02*
G01*
X171587000Y-102344000D01*
X171587000Y-101392000D01*
X173289000Y-101392000D01*
X173289000Y-102344000D01*
G37*
G36*
X127569000Y-102344000D02*
G01*
X125867000Y-102344000D01*
X125867000Y-101392000D01*
X127569000Y-101392000D01*
X127569000Y-102344000D01*
G37*
G36*
X169789000Y-102344000D02*
G01*
X168087000Y-102344000D01*
X168087000Y-101392000D01*
X169789000Y-101392000D01*
X169789000Y-102344000D01*
G37*
G36*
X101209000Y-102344000D02*
G01*
X99507000Y-102344000D01*
X99507000Y-101392000D01*
X101209000Y-101392000D01*
X101209000Y-102344000D01*
G37*
G36*
X158049000Y-102344000D02*
G01*
X156347000Y-102344000D01*
X156347000Y-101392000D01*
X158049000Y-101392000D01*
X158049000Y-102344000D01*
G37*
G36*
X112329000Y-102344000D02*
G01*
X110627000Y-102344000D01*
X110627000Y-101392000D01*
X112329000Y-101392000D01*
X112329000Y-102344000D01*
G37*
G36*
X108829000Y-102344000D02*
G01*
X107127000Y-102344000D01*
X107127000Y-101392000D01*
X108829000Y-101392000D01*
X108829000Y-102344000D01*
G37*
G36*
X154549000Y-102344000D02*
G01*
X152847000Y-102344000D01*
X152847000Y-101392000D01*
X154549000Y-101392000D01*
X154549000Y-102344000D01*
G37*
G36*
X71971000Y-101054000D02*
G01*
X70269000Y-101054000D01*
X70269000Y-99352000D01*
X71971000Y-99352000D01*
X71971000Y-101054000D01*
G37*
G36*
X124069000Y-99014000D02*
G01*
X122367000Y-99014000D01*
X122367000Y-98062000D01*
X124069000Y-98062000D01*
X124069000Y-99014000D01*
G37*
G36*
X127569000Y-99014000D02*
G01*
X125867000Y-99014000D01*
X125867000Y-98062000D01*
X127569000Y-98062000D01*
X127569000Y-99014000D01*
G37*
G36*
X196149000Y-99014000D02*
G01*
X194447000Y-99014000D01*
X194447000Y-98062000D01*
X196149000Y-98062000D01*
X196149000Y-99014000D01*
G37*
G36*
X192649000Y-99014000D02*
G01*
X190947000Y-99014000D01*
X190947000Y-98062000D01*
X192649000Y-98062000D01*
X192649000Y-99014000D01*
G37*
G36*
X188529000Y-99014000D02*
G01*
X186827000Y-99014000D01*
X186827000Y-98062000D01*
X188529000Y-98062000D01*
X188529000Y-99014000D01*
G37*
G36*
X185029000Y-99014000D02*
G01*
X183327000Y-99014000D01*
X183327000Y-98062000D01*
X185029000Y-98062000D01*
X185029000Y-99014000D01*
G37*
G36*
X180909000Y-99014000D02*
G01*
X179207000Y-99014000D01*
X179207000Y-98062000D01*
X180909000Y-98062000D01*
X180909000Y-99014000D01*
G37*
G36*
X177409000Y-99014000D02*
G01*
X175707000Y-99014000D01*
X175707000Y-98062000D01*
X177409000Y-98062000D01*
X177409000Y-99014000D01*
G37*
G36*
X173289000Y-99014000D02*
G01*
X171587000Y-99014000D01*
X171587000Y-98062000D01*
X173289000Y-98062000D01*
X173289000Y-99014000D01*
G37*
G36*
X169789000Y-99014000D02*
G01*
X168087000Y-99014000D01*
X168087000Y-98062000D01*
X169789000Y-98062000D01*
X169789000Y-99014000D01*
G37*
G36*
X165669000Y-99014000D02*
G01*
X163967000Y-99014000D01*
X163967000Y-98062000D01*
X165669000Y-98062000D01*
X165669000Y-99014000D01*
G37*
G36*
X162169000Y-99014000D02*
G01*
X160467000Y-99014000D01*
X160467000Y-98062000D01*
X162169000Y-98062000D01*
X162169000Y-99014000D01*
G37*
G36*
X158049000Y-99014000D02*
G01*
X156347000Y-99014000D01*
X156347000Y-98062000D01*
X158049000Y-98062000D01*
X158049000Y-99014000D01*
G37*
G36*
X154549000Y-99014000D02*
G01*
X152847000Y-99014000D01*
X152847000Y-98062000D01*
X154549000Y-98062000D01*
X154549000Y-99014000D01*
G37*
G36*
X150429000Y-99014000D02*
G01*
X148727000Y-99014000D01*
X148727000Y-98062000D01*
X150429000Y-98062000D01*
X150429000Y-99014000D01*
G37*
G36*
X146929000Y-99014000D02*
G01*
X145227000Y-99014000D01*
X145227000Y-98062000D01*
X146929000Y-98062000D01*
X146929000Y-99014000D01*
G37*
G36*
X142809000Y-99014000D02*
G01*
X141107000Y-99014000D01*
X141107000Y-98062000D01*
X142809000Y-98062000D01*
X142809000Y-99014000D01*
G37*
G36*
X139309000Y-99014000D02*
G01*
X137607000Y-99014000D01*
X137607000Y-98062000D01*
X139309000Y-98062000D01*
X139309000Y-99014000D01*
G37*
G36*
X135189000Y-99014000D02*
G01*
X133487000Y-99014000D01*
X133487000Y-98062000D01*
X135189000Y-98062000D01*
X135189000Y-99014000D01*
G37*
G36*
X131689000Y-99014000D02*
G01*
X129987000Y-99014000D01*
X129987000Y-98062000D01*
X131689000Y-98062000D01*
X131689000Y-99014000D01*
G37*
G36*
X119949000Y-99014000D02*
G01*
X118247000Y-99014000D01*
X118247000Y-98062000D01*
X119949000Y-98062000D01*
X119949000Y-99014000D01*
G37*
G36*
X116449000Y-99014000D02*
G01*
X114747000Y-99014000D01*
X114747000Y-98062000D01*
X116449000Y-98062000D01*
X116449000Y-99014000D01*
G37*
G36*
X112329000Y-99014000D02*
G01*
X110627000Y-99014000D01*
X110627000Y-98062000D01*
X112329000Y-98062000D01*
X112329000Y-99014000D01*
G37*
G36*
X108829000Y-99014000D02*
G01*
X107127000Y-99014000D01*
X107127000Y-98062000D01*
X108829000Y-98062000D01*
X108829000Y-99014000D01*
G37*
G36*
X104709000Y-99014000D02*
G01*
X103007000Y-99014000D01*
X103007000Y-98062000D01*
X104709000Y-98062000D01*
X104709000Y-99014000D01*
G37*
G36*
X101209000Y-99014000D02*
G01*
X99507000Y-99014000D01*
X99507000Y-98062000D01*
X101209000Y-98062000D01*
X101209000Y-99014000D01*
G37*
G36*
X97089000Y-99014000D02*
G01*
X95387000Y-99014000D01*
X95387000Y-98062000D01*
X97089000Y-98062000D01*
X97089000Y-99014000D01*
G37*
G36*
X93589000Y-99014000D02*
G01*
X91887000Y-99014000D01*
X91887000Y-98062000D01*
X93589000Y-98062000D01*
X93589000Y-99014000D01*
G37*
G36*
X89469000Y-99014000D02*
G01*
X87767000Y-99014000D01*
X87767000Y-98062000D01*
X89469000Y-98062000D01*
X89469000Y-99014000D01*
G37*
G36*
X85969000Y-99014000D02*
G01*
X84267000Y-99014000D01*
X84267000Y-98062000D01*
X85969000Y-98062000D01*
X85969000Y-99014000D01*
G37*
G36*
X81849000Y-99014000D02*
G01*
X80147000Y-99014000D01*
X80147000Y-98062000D01*
X81849000Y-98062000D01*
X81849000Y-99014000D01*
G37*
G36*
X78349000Y-99014000D02*
G01*
X76647000Y-99014000D01*
X76647000Y-98062000D01*
X78349000Y-98062000D01*
X78349000Y-99014000D01*
G37*
G36*
X108829000Y-97264000D02*
G01*
X107127000Y-97264000D01*
X107127000Y-96312000D01*
X108829000Y-96312000D01*
X108829000Y-97264000D01*
G37*
G36*
X154549000Y-97264000D02*
G01*
X152847000Y-97264000D01*
X152847000Y-96312000D01*
X154549000Y-96312000D01*
X154549000Y-97264000D01*
G37*
G36*
X165669000Y-97264000D02*
G01*
X163967000Y-97264000D01*
X163967000Y-96312000D01*
X165669000Y-96312000D01*
X165669000Y-97264000D01*
G37*
G36*
X162169000Y-97264000D02*
G01*
X160467000Y-97264000D01*
X160467000Y-96312000D01*
X162169000Y-96312000D01*
X162169000Y-97264000D01*
G37*
G36*
X196149000Y-97264000D02*
G01*
X194447000Y-97264000D01*
X194447000Y-96312000D01*
X196149000Y-96312000D01*
X196149000Y-97264000D01*
G37*
G36*
X192649000Y-97264000D02*
G01*
X190947000Y-97264000D01*
X190947000Y-96312000D01*
X192649000Y-96312000D01*
X192649000Y-97264000D01*
G37*
G36*
X173289000Y-97264000D02*
G01*
X171587000Y-97264000D01*
X171587000Y-96312000D01*
X173289000Y-96312000D01*
X173289000Y-97264000D01*
G37*
G36*
X169789000Y-97264000D02*
G01*
X168087000Y-97264000D01*
X168087000Y-96312000D01*
X169789000Y-96312000D01*
X169789000Y-97264000D01*
G37*
G36*
X124069000Y-97264000D02*
G01*
X122367000Y-97264000D01*
X122367000Y-96312000D01*
X124069000Y-96312000D01*
X124069000Y-97264000D01*
G37*
G36*
X127569000Y-97264000D02*
G01*
X125867000Y-97264000D01*
X125867000Y-96312000D01*
X127569000Y-96312000D01*
X127569000Y-97264000D01*
G37*
G36*
X188529000Y-97264000D02*
G01*
X186827000Y-97264000D01*
X186827000Y-96312000D01*
X188529000Y-96312000D01*
X188529000Y-97264000D01*
G37*
G36*
X185029000Y-97264000D02*
G01*
X183327000Y-97264000D01*
X183327000Y-96312000D01*
X185029000Y-96312000D01*
X185029000Y-97264000D01*
G37*
G36*
X180909000Y-97264000D02*
G01*
X179207000Y-97264000D01*
X179207000Y-96312000D01*
X180909000Y-96312000D01*
X180909000Y-97264000D01*
G37*
G36*
X177409000Y-97264000D02*
G01*
X175707000Y-97264000D01*
X175707000Y-96312000D01*
X177409000Y-96312000D01*
X177409000Y-97264000D01*
G37*
G36*
X158049000Y-97264000D02*
G01*
X156347000Y-97264000D01*
X156347000Y-96312000D01*
X158049000Y-96312000D01*
X158049000Y-97264000D01*
G37*
G36*
X116449000Y-97264000D02*
G01*
X114747000Y-97264000D01*
X114747000Y-96312000D01*
X116449000Y-96312000D01*
X116449000Y-97264000D01*
G37*
G36*
X119949000Y-97264000D02*
G01*
X118247000Y-97264000D01*
X118247000Y-96312000D01*
X119949000Y-96312000D01*
X119949000Y-97264000D01*
G37*
G36*
X150429000Y-97264000D02*
G01*
X148727000Y-97264000D01*
X148727000Y-96312000D01*
X150429000Y-96312000D01*
X150429000Y-97264000D01*
G37*
G36*
X142809000Y-97264000D02*
G01*
X141107000Y-97264000D01*
X141107000Y-96312000D01*
X142809000Y-96312000D01*
X142809000Y-97264000D01*
G37*
G36*
X112329000Y-97264000D02*
G01*
X110627000Y-97264000D01*
X110627000Y-96312000D01*
X112329000Y-96312000D01*
X112329000Y-97264000D01*
G37*
G36*
X146929000Y-97264000D02*
G01*
X145227000Y-97264000D01*
X145227000Y-96312000D01*
X146929000Y-96312000D01*
X146929000Y-97264000D01*
G37*
G36*
X139309000Y-97264000D02*
G01*
X137607000Y-97264000D01*
X137607000Y-96312000D01*
X139309000Y-96312000D01*
X139309000Y-97264000D01*
G37*
G36*
X101209000Y-97264000D02*
G01*
X99507000Y-97264000D01*
X99507000Y-96312000D01*
X101209000Y-96312000D01*
X101209000Y-97264000D01*
G37*
G36*
X104709000Y-97264000D02*
G01*
X103007000Y-97264000D01*
X103007000Y-96312000D01*
X104709000Y-96312000D01*
X104709000Y-97264000D01*
G37*
G36*
X135189000Y-97264000D02*
G01*
X133487000Y-97264000D01*
X133487000Y-96312000D01*
X135189000Y-96312000D01*
X135189000Y-97264000D01*
G37*
G36*
X131689000Y-97264000D02*
G01*
X129987000Y-97264000D01*
X129987000Y-96312000D01*
X131689000Y-96312000D01*
X131689000Y-97264000D01*
G37*
G36*
X93589000Y-97264000D02*
G01*
X91887000Y-97264000D01*
X91887000Y-96312000D01*
X93589000Y-96312000D01*
X93589000Y-97264000D01*
G37*
G36*
X97089000Y-97264000D02*
G01*
X95387000Y-97264000D01*
X95387000Y-96312000D01*
X97089000Y-96312000D01*
X97089000Y-97264000D01*
G37*
G36*
X85969000Y-97264000D02*
G01*
X84267000Y-97264000D01*
X84267000Y-96312000D01*
X85969000Y-96312000D01*
X85969000Y-97264000D01*
G37*
G36*
X89469000Y-97264000D02*
G01*
X87767000Y-97264000D01*
X87767000Y-96312000D01*
X89469000Y-96312000D01*
X89469000Y-97264000D01*
G37*
G36*
X78349000Y-97264000D02*
G01*
X76647000Y-97264000D01*
X76647000Y-96312000D01*
X78349000Y-96312000D01*
X78349000Y-97264000D01*
G37*
G36*
X81849000Y-97264000D02*
G01*
X80147000Y-97264000D01*
X80147000Y-96312000D01*
X81849000Y-96312000D01*
X81849000Y-97264000D01*
G37*
G36*
X72021000Y-95008000D02*
G01*
X70219000Y-95008000D01*
X70219000Y-93206000D01*
X72021000Y-93206000D01*
X72021000Y-95008000D01*
G37*
G36*
X162169000Y-93934000D02*
G01*
X160467000Y-93934000D01*
X160467000Y-92982000D01*
X162169000Y-92982000D01*
X162169000Y-93934000D01*
G37*
G36*
X112329000Y-93934000D02*
G01*
X110627000Y-93934000D01*
X110627000Y-92982000D01*
X112329000Y-92982000D01*
X112329000Y-93934000D01*
G37*
G36*
X116449000Y-93934000D02*
G01*
X114747000Y-93934000D01*
X114747000Y-92982000D01*
X116449000Y-92982000D01*
X116449000Y-93934000D01*
G37*
G36*
X119949000Y-93934000D02*
G01*
X118247000Y-93934000D01*
X118247000Y-92982000D01*
X119949000Y-92982000D01*
X119949000Y-93934000D01*
G37*
G36*
X124069000Y-93934000D02*
G01*
X122367000Y-93934000D01*
X122367000Y-92982000D01*
X124069000Y-92982000D01*
X124069000Y-93934000D01*
G37*
G36*
X127569000Y-93934000D02*
G01*
X125867000Y-93934000D01*
X125867000Y-92982000D01*
X127569000Y-92982000D01*
X127569000Y-93934000D01*
G37*
G36*
X131689000Y-93934000D02*
G01*
X129987000Y-93934000D01*
X129987000Y-92982000D01*
X131689000Y-92982000D01*
X131689000Y-93934000D01*
G37*
G36*
X104709000Y-93934000D02*
G01*
X103007000Y-93934000D01*
X103007000Y-92982000D01*
X104709000Y-92982000D01*
X104709000Y-93934000D01*
G37*
G36*
X135189000Y-93934000D02*
G01*
X133487000Y-93934000D01*
X133487000Y-92982000D01*
X135189000Y-92982000D01*
X135189000Y-93934000D01*
G37*
G36*
X101209000Y-93934000D02*
G01*
X99507000Y-93934000D01*
X99507000Y-92982000D01*
X101209000Y-92982000D01*
X101209000Y-93934000D01*
G37*
G36*
X139309000Y-93934000D02*
G01*
X137607000Y-93934000D01*
X137607000Y-92982000D01*
X139309000Y-92982000D01*
X139309000Y-93934000D01*
G37*
G36*
X142809000Y-93934000D02*
G01*
X141107000Y-93934000D01*
X141107000Y-92982000D01*
X142809000Y-92982000D01*
X142809000Y-93934000D01*
G37*
G36*
X146929000Y-93934000D02*
G01*
X145227000Y-93934000D01*
X145227000Y-92982000D01*
X146929000Y-92982000D01*
X146929000Y-93934000D01*
G37*
G36*
X150429000Y-93934000D02*
G01*
X148727000Y-93934000D01*
X148727000Y-92982000D01*
X150429000Y-92982000D01*
X150429000Y-93934000D01*
G37*
G36*
X154549000Y-93934000D02*
G01*
X152847000Y-93934000D01*
X152847000Y-92982000D01*
X154549000Y-92982000D01*
X154549000Y-93934000D01*
G37*
G36*
X158049000Y-93934000D02*
G01*
X156347000Y-93934000D01*
X156347000Y-92982000D01*
X158049000Y-92982000D01*
X158049000Y-93934000D01*
G37*
G36*
X165669000Y-93934000D02*
G01*
X163967000Y-93934000D01*
X163967000Y-92982000D01*
X165669000Y-92982000D01*
X165669000Y-93934000D01*
G37*
G36*
X169789000Y-93934000D02*
G01*
X168087000Y-93934000D01*
X168087000Y-92982000D01*
X169789000Y-92982000D01*
X169789000Y-93934000D01*
G37*
G36*
X173289000Y-93934000D02*
G01*
X171587000Y-93934000D01*
X171587000Y-92982000D01*
X173289000Y-92982000D01*
X173289000Y-93934000D01*
G37*
G36*
X177409000Y-93934000D02*
G01*
X175707000Y-93934000D01*
X175707000Y-92982000D01*
X177409000Y-92982000D01*
X177409000Y-93934000D01*
G37*
G36*
X180909000Y-93934000D02*
G01*
X179207000Y-93934000D01*
X179207000Y-92982000D01*
X180909000Y-92982000D01*
X180909000Y-93934000D01*
G37*
G36*
X185029000Y-93934000D02*
G01*
X183327000Y-93934000D01*
X183327000Y-92982000D01*
X185029000Y-92982000D01*
X185029000Y-93934000D01*
G37*
G36*
X188529000Y-93934000D02*
G01*
X186827000Y-93934000D01*
X186827000Y-92982000D01*
X188529000Y-92982000D01*
X188529000Y-93934000D01*
G37*
G36*
X192649000Y-93934000D02*
G01*
X190947000Y-93934000D01*
X190947000Y-92982000D01*
X192649000Y-92982000D01*
X192649000Y-93934000D01*
G37*
G36*
X196149000Y-93934000D02*
G01*
X194447000Y-93934000D01*
X194447000Y-92982000D01*
X196149000Y-92982000D01*
X196149000Y-93934000D01*
G37*
G36*
X97089000Y-93934000D02*
G01*
X95387000Y-93934000D01*
X95387000Y-92982000D01*
X97089000Y-92982000D01*
X97089000Y-93934000D01*
G37*
G36*
X93589000Y-93934000D02*
G01*
X91887000Y-93934000D01*
X91887000Y-92982000D01*
X93589000Y-92982000D01*
X93589000Y-93934000D01*
G37*
G36*
X89469000Y-93934000D02*
G01*
X87767000Y-93934000D01*
X87767000Y-92982000D01*
X89469000Y-92982000D01*
X89469000Y-93934000D01*
G37*
G36*
X85969000Y-93934000D02*
G01*
X84267000Y-93934000D01*
X84267000Y-92982000D01*
X85969000Y-92982000D01*
X85969000Y-93934000D01*
G37*
G36*
X81849000Y-93934000D02*
G01*
X80147000Y-93934000D01*
X80147000Y-92982000D01*
X81849000Y-92982000D01*
X81849000Y-93934000D01*
G37*
G36*
X78349000Y-93934000D02*
G01*
X76647000Y-93934000D01*
X76647000Y-92982000D01*
X78349000Y-92982000D01*
X78349000Y-93934000D01*
G37*
G36*
X108829000Y-93934000D02*
G01*
X107127000Y-93934000D01*
X107127000Y-92982000D01*
X108829000Y-92982000D01*
X108829000Y-93934000D01*
G37*
G36*
X71233512Y-90670927D02*
G01*
X71382812Y-90700624D01*
X71546784Y-90768544D01*
X71694354Y-90867147D01*
X71819853Y-90992646D01*
X71918456Y-91140216D01*
X71986376Y-91304188D01*
X72021000Y-91478259D01*
X72021000Y-91655741D01*
X71986376Y-91829812D01*
X71918456Y-91993784D01*
X71819853Y-92141354D01*
X71694354Y-92266853D01*
X71546784Y-92365456D01*
X71382812Y-92433376D01*
X71233512Y-92463073D01*
X71208742Y-92468000D01*
X71031258Y-92468000D01*
X71006488Y-92463073D01*
X70857188Y-92433376D01*
X70693216Y-92365456D01*
X70545646Y-92266853D01*
X70420147Y-92141354D01*
X70321544Y-91993784D01*
X70253624Y-91829812D01*
X70219000Y-91655741D01*
X70219000Y-91478259D01*
X70253624Y-91304188D01*
X70321544Y-91140216D01*
X70420147Y-90992646D01*
X70545646Y-90867147D01*
X70693216Y-90768544D01*
X70857188Y-90700624D01*
X71006488Y-90670927D01*
X71031258Y-90666000D01*
X71208742Y-90666000D01*
X71233512Y-90670927D01*
G37*
G36*
X124069000Y-92184000D02*
G01*
X122367000Y-92184000D01*
X122367000Y-91232000D01*
X124069000Y-91232000D01*
X124069000Y-92184000D01*
G37*
G36*
X104709000Y-92184000D02*
G01*
X103007000Y-92184000D01*
X103007000Y-91232000D01*
X104709000Y-91232000D01*
X104709000Y-92184000D01*
G37*
G36*
X196149000Y-92184000D02*
G01*
X194447000Y-92184000D01*
X194447000Y-91232000D01*
X196149000Y-91232000D01*
X196149000Y-92184000D01*
G37*
G36*
X192649000Y-92184000D02*
G01*
X190947000Y-92184000D01*
X190947000Y-91232000D01*
X192649000Y-91232000D01*
X192649000Y-92184000D01*
G37*
G36*
X101209000Y-92184000D02*
G01*
X99507000Y-92184000D01*
X99507000Y-91232000D01*
X101209000Y-91232000D01*
X101209000Y-92184000D01*
G37*
G36*
X93589000Y-92184000D02*
G01*
X91887000Y-92184000D01*
X91887000Y-91232000D01*
X93589000Y-91232000D01*
X93589000Y-92184000D01*
G37*
G36*
X97089000Y-92184000D02*
G01*
X95387000Y-92184000D01*
X95387000Y-91232000D01*
X97089000Y-91232000D01*
X97089000Y-92184000D01*
G37*
G36*
X112329000Y-92184000D02*
G01*
X110627000Y-92184000D01*
X110627000Y-91232000D01*
X112329000Y-91232000D01*
X112329000Y-92184000D01*
G37*
G36*
X142809000Y-92184000D02*
G01*
X141107000Y-92184000D01*
X141107000Y-91232000D01*
X142809000Y-91232000D01*
X142809000Y-92184000D01*
G37*
G36*
X139309000Y-92184000D02*
G01*
X137607000Y-92184000D01*
X137607000Y-91232000D01*
X139309000Y-91232000D01*
X139309000Y-92184000D01*
G37*
G36*
X188529000Y-92184000D02*
G01*
X186827000Y-92184000D01*
X186827000Y-91232000D01*
X188529000Y-91232000D01*
X188529000Y-92184000D01*
G37*
G36*
X185029000Y-92184000D02*
G01*
X183327000Y-92184000D01*
X183327000Y-91232000D01*
X185029000Y-91232000D01*
X185029000Y-92184000D01*
G37*
G36*
X180909000Y-92184000D02*
G01*
X179207000Y-92184000D01*
X179207000Y-91232000D01*
X180909000Y-91232000D01*
X180909000Y-92184000D01*
G37*
G36*
X177409000Y-92184000D02*
G01*
X175707000Y-92184000D01*
X175707000Y-91232000D01*
X177409000Y-91232000D01*
X177409000Y-92184000D01*
G37*
G36*
X108829000Y-92184000D02*
G01*
X107127000Y-92184000D01*
X107127000Y-91232000D01*
X108829000Y-91232000D01*
X108829000Y-92184000D01*
G37*
G36*
X85969000Y-92184000D02*
G01*
X84267000Y-92184000D01*
X84267000Y-91232000D01*
X85969000Y-91232000D01*
X85969000Y-92184000D01*
G37*
G36*
X89469000Y-92184000D02*
G01*
X87767000Y-92184000D01*
X87767000Y-91232000D01*
X89469000Y-91232000D01*
X89469000Y-92184000D01*
G37*
G36*
X119949000Y-92184000D02*
G01*
X118247000Y-92184000D01*
X118247000Y-91232000D01*
X119949000Y-91232000D01*
X119949000Y-92184000D01*
G37*
G36*
X150429000Y-92184000D02*
G01*
X148727000Y-92184000D01*
X148727000Y-91232000D01*
X150429000Y-91232000D01*
X150429000Y-92184000D01*
G37*
G36*
X146929000Y-92184000D02*
G01*
X145227000Y-92184000D01*
X145227000Y-91232000D01*
X146929000Y-91232000D01*
X146929000Y-92184000D01*
G37*
G36*
X116449000Y-92184000D02*
G01*
X114747000Y-92184000D01*
X114747000Y-91232000D01*
X116449000Y-91232000D01*
X116449000Y-92184000D01*
G37*
G36*
X78349000Y-92184000D02*
G01*
X76647000Y-92184000D01*
X76647000Y-91232000D01*
X78349000Y-91232000D01*
X78349000Y-92184000D01*
G37*
G36*
X131689000Y-92184000D02*
G01*
X129987000Y-92184000D01*
X129987000Y-91232000D01*
X131689000Y-91232000D01*
X131689000Y-92184000D01*
G37*
G36*
X81849000Y-92184000D02*
G01*
X80147000Y-92184000D01*
X80147000Y-91232000D01*
X81849000Y-91232000D01*
X81849000Y-92184000D01*
G37*
G36*
X135189000Y-92184000D02*
G01*
X133487000Y-92184000D01*
X133487000Y-91232000D01*
X135189000Y-91232000D01*
X135189000Y-92184000D01*
G37*
G36*
X173289000Y-92184000D02*
G01*
X171587000Y-92184000D01*
X171587000Y-91232000D01*
X173289000Y-91232000D01*
X173289000Y-92184000D01*
G37*
G36*
X169789000Y-92184000D02*
G01*
X168087000Y-92184000D01*
X168087000Y-91232000D01*
X169789000Y-91232000D01*
X169789000Y-92184000D01*
G37*
G36*
X158049000Y-92184000D02*
G01*
X156347000Y-92184000D01*
X156347000Y-91232000D01*
X158049000Y-91232000D01*
X158049000Y-92184000D01*
G37*
G36*
X154549000Y-92184000D02*
G01*
X152847000Y-92184000D01*
X152847000Y-91232000D01*
X154549000Y-91232000D01*
X154549000Y-92184000D01*
G37*
G36*
X165669000Y-92184000D02*
G01*
X163967000Y-92184000D01*
X163967000Y-91232000D01*
X165669000Y-91232000D01*
X165669000Y-92184000D01*
G37*
G36*
X162169000Y-92184000D02*
G01*
X160467000Y-92184000D01*
X160467000Y-91232000D01*
X162169000Y-91232000D01*
X162169000Y-92184000D01*
G37*
G36*
X127569000Y-92184000D02*
G01*
X125867000Y-92184000D01*
X125867000Y-91232000D01*
X127569000Y-91232000D01*
X127569000Y-92184000D01*
G37*
G36*
X71233512Y-88130927D02*
G01*
X71382812Y-88160624D01*
X71546784Y-88228544D01*
X71694354Y-88327147D01*
X71819853Y-88452646D01*
X71918456Y-88600216D01*
X71986376Y-88764188D01*
X72021000Y-88938259D01*
X72021000Y-89115741D01*
X71986376Y-89289812D01*
X71918456Y-89453784D01*
X71819853Y-89601354D01*
X71694354Y-89726853D01*
X71546784Y-89825456D01*
X71382812Y-89893376D01*
X71233512Y-89923073D01*
X71208742Y-89928000D01*
X71031258Y-89928000D01*
X71006488Y-89923073D01*
X70857188Y-89893376D01*
X70693216Y-89825456D01*
X70545646Y-89726853D01*
X70420147Y-89601354D01*
X70321544Y-89453784D01*
X70253624Y-89289812D01*
X70219000Y-89115741D01*
X70219000Y-88938259D01*
X70253624Y-88764188D01*
X70321544Y-88600216D01*
X70420147Y-88452646D01*
X70545646Y-88327147D01*
X70693216Y-88228544D01*
X70857188Y-88160624D01*
X71006488Y-88130927D01*
X71031258Y-88126000D01*
X71208742Y-88126000D01*
X71233512Y-88130927D01*
G37*
G36*
X180909000Y-88854000D02*
G01*
X179207000Y-88854000D01*
X179207000Y-87902000D01*
X180909000Y-87902000D01*
X180909000Y-88854000D01*
G37*
G36*
X127569000Y-88854000D02*
G01*
X125867000Y-88854000D01*
X125867000Y-87902000D01*
X127569000Y-87902000D01*
X127569000Y-88854000D01*
G37*
G36*
X104709000Y-88854000D02*
G01*
X103007000Y-88854000D01*
X103007000Y-87902000D01*
X104709000Y-87902000D01*
X104709000Y-88854000D01*
G37*
G36*
X101209000Y-88854000D02*
G01*
X99507000Y-88854000D01*
X99507000Y-87902000D01*
X101209000Y-87902000D01*
X101209000Y-88854000D01*
G37*
G36*
X124069000Y-88854000D02*
G01*
X122367000Y-88854000D01*
X122367000Y-87902000D01*
X124069000Y-87902000D01*
X124069000Y-88854000D01*
G37*
G36*
X188529000Y-88854000D02*
G01*
X186827000Y-88854000D01*
X186827000Y-87902000D01*
X188529000Y-87902000D01*
X188529000Y-88854000D01*
G37*
G36*
X169789000Y-88854000D02*
G01*
X168087000Y-88854000D01*
X168087000Y-87902000D01*
X169789000Y-87902000D01*
X169789000Y-88854000D01*
G37*
G36*
X142809000Y-88854000D02*
G01*
X141107000Y-88854000D01*
X141107000Y-87902000D01*
X142809000Y-87902000D01*
X142809000Y-88854000D01*
G37*
G36*
X173289000Y-88854000D02*
G01*
X171587000Y-88854000D01*
X171587000Y-87902000D01*
X173289000Y-87902000D01*
X173289000Y-88854000D01*
G37*
G36*
X139309000Y-88854000D02*
G01*
X137607000Y-88854000D01*
X137607000Y-87902000D01*
X139309000Y-87902000D01*
X139309000Y-88854000D01*
G37*
G36*
X177409000Y-88854000D02*
G01*
X175707000Y-88854000D01*
X175707000Y-87902000D01*
X177409000Y-87902000D01*
X177409000Y-88854000D01*
G37*
G36*
X93589000Y-88854000D02*
G01*
X91887000Y-88854000D01*
X91887000Y-87902000D01*
X93589000Y-87902000D01*
X93589000Y-88854000D01*
G37*
G36*
X162169000Y-88854000D02*
G01*
X160467000Y-88854000D01*
X160467000Y-87902000D01*
X162169000Y-87902000D01*
X162169000Y-88854000D01*
G37*
G36*
X112329000Y-88854000D02*
G01*
X110627000Y-88854000D01*
X110627000Y-87902000D01*
X112329000Y-87902000D01*
X112329000Y-88854000D01*
G37*
G36*
X165669000Y-88854000D02*
G01*
X163967000Y-88854000D01*
X163967000Y-87902000D01*
X165669000Y-87902000D01*
X165669000Y-88854000D01*
G37*
G36*
X108829000Y-88854000D02*
G01*
X107127000Y-88854000D01*
X107127000Y-87902000D01*
X108829000Y-87902000D01*
X108829000Y-88854000D01*
G37*
G36*
X135189000Y-88854000D02*
G01*
X133487000Y-88854000D01*
X133487000Y-87902000D01*
X135189000Y-87902000D01*
X135189000Y-88854000D01*
G37*
G36*
X97089000Y-88854000D02*
G01*
X95387000Y-88854000D01*
X95387000Y-87902000D01*
X97089000Y-87902000D01*
X97089000Y-88854000D01*
G37*
G36*
X150429000Y-88854000D02*
G01*
X148727000Y-88854000D01*
X148727000Y-87902000D01*
X150429000Y-87902000D01*
X150429000Y-88854000D01*
G37*
G36*
X185029000Y-88854000D02*
G01*
X183327000Y-88854000D01*
X183327000Y-87902000D01*
X185029000Y-87902000D01*
X185029000Y-88854000D01*
G37*
G36*
X78349000Y-88854000D02*
G01*
X76647000Y-88854000D01*
X76647000Y-87902000D01*
X78349000Y-87902000D01*
X78349000Y-88854000D01*
G37*
G36*
X131689000Y-88854000D02*
G01*
X129987000Y-88854000D01*
X129987000Y-87902000D01*
X131689000Y-87902000D01*
X131689000Y-88854000D01*
G37*
G36*
X81849000Y-88854000D02*
G01*
X80147000Y-88854000D01*
X80147000Y-87902000D01*
X81849000Y-87902000D01*
X81849000Y-88854000D01*
G37*
G36*
X154549000Y-88854000D02*
G01*
X152847000Y-88854000D01*
X152847000Y-87902000D01*
X154549000Y-87902000D01*
X154549000Y-88854000D01*
G37*
G36*
X85969000Y-88854000D02*
G01*
X84267000Y-88854000D01*
X84267000Y-87902000D01*
X85969000Y-87902000D01*
X85969000Y-88854000D01*
G37*
G36*
X158049000Y-88854000D02*
G01*
X156347000Y-88854000D01*
X156347000Y-87902000D01*
X158049000Y-87902000D01*
X158049000Y-88854000D01*
G37*
G36*
X89469000Y-88854000D02*
G01*
X87767000Y-88854000D01*
X87767000Y-87902000D01*
X89469000Y-87902000D01*
X89469000Y-88854000D01*
G37*
G36*
X196149000Y-88854000D02*
G01*
X194447000Y-88854000D01*
X194447000Y-87902000D01*
X196149000Y-87902000D01*
X196149000Y-88854000D01*
G37*
G36*
X192649000Y-88854000D02*
G01*
X190947000Y-88854000D01*
X190947000Y-87902000D01*
X192649000Y-87902000D01*
X192649000Y-88854000D01*
G37*
G36*
X116449000Y-88854000D02*
G01*
X114747000Y-88854000D01*
X114747000Y-87902000D01*
X116449000Y-87902000D01*
X116449000Y-88854000D01*
G37*
G36*
X119949000Y-88854000D02*
G01*
X118247000Y-88854000D01*
X118247000Y-87902000D01*
X119949000Y-87902000D01*
X119949000Y-88854000D01*
G37*
G36*
X146929000Y-88854000D02*
G01*
X145227000Y-88854000D01*
X145227000Y-87902000D01*
X146929000Y-87902000D01*
X146929000Y-88854000D01*
G37*
G36*
X169789000Y-87104000D02*
G01*
X168087000Y-87104000D01*
X168087000Y-86152000D01*
X169789000Y-86152000D01*
X169789000Y-87104000D01*
G37*
G36*
X150429000Y-87104000D02*
G01*
X148727000Y-87104000D01*
X148727000Y-86152000D01*
X150429000Y-86152000D01*
X150429000Y-87104000D01*
G37*
G36*
X85969000Y-87104000D02*
G01*
X84267000Y-87104000D01*
X84267000Y-86152000D01*
X85969000Y-86152000D01*
X85969000Y-87104000D01*
G37*
G36*
X119949000Y-87104000D02*
G01*
X118247000Y-87104000D01*
X118247000Y-86152000D01*
X119949000Y-86152000D01*
X119949000Y-87104000D01*
G37*
G36*
X116449000Y-87104000D02*
G01*
X114747000Y-87104000D01*
X114747000Y-86152000D01*
X116449000Y-86152000D01*
X116449000Y-87104000D01*
G37*
G36*
X146929000Y-87104000D02*
G01*
X145227000Y-87104000D01*
X145227000Y-86152000D01*
X146929000Y-86152000D01*
X146929000Y-87104000D01*
G37*
G36*
X89469000Y-87104000D02*
G01*
X87767000Y-87104000D01*
X87767000Y-86152000D01*
X89469000Y-86152000D01*
X89469000Y-87104000D01*
G37*
G36*
X81849000Y-87104000D02*
G01*
X80147000Y-87104000D01*
X80147000Y-86152000D01*
X81849000Y-86152000D01*
X81849000Y-87104000D01*
G37*
G36*
X192649000Y-87104000D02*
G01*
X190947000Y-87104000D01*
X190947000Y-86152000D01*
X192649000Y-86152000D01*
X192649000Y-87104000D01*
G37*
G36*
X196149000Y-87104000D02*
G01*
X194447000Y-87104000D01*
X194447000Y-86152000D01*
X196149000Y-86152000D01*
X196149000Y-87104000D01*
G37*
G36*
X78349000Y-87104000D02*
G01*
X76647000Y-87104000D01*
X76647000Y-86152000D01*
X78349000Y-86152000D01*
X78349000Y-87104000D01*
G37*
G36*
X158049000Y-87104000D02*
G01*
X156347000Y-87104000D01*
X156347000Y-86152000D01*
X158049000Y-86152000D01*
X158049000Y-87104000D01*
G37*
G36*
X131689000Y-87104000D02*
G01*
X129987000Y-87104000D01*
X129987000Y-86152000D01*
X131689000Y-86152000D01*
X131689000Y-87104000D01*
G37*
G36*
X185029000Y-87104000D02*
G01*
X183327000Y-87104000D01*
X183327000Y-86152000D01*
X185029000Y-86152000D01*
X185029000Y-87104000D01*
G37*
G36*
X188529000Y-87104000D02*
G01*
X186827000Y-87104000D01*
X186827000Y-86152000D01*
X188529000Y-86152000D01*
X188529000Y-87104000D01*
G37*
G36*
X139309000Y-87104000D02*
G01*
X137607000Y-87104000D01*
X137607000Y-86152000D01*
X139309000Y-86152000D01*
X139309000Y-87104000D01*
G37*
G36*
X135189000Y-87104000D02*
G01*
X133487000Y-87104000D01*
X133487000Y-86152000D01*
X135189000Y-86152000D01*
X135189000Y-87104000D01*
G37*
G36*
X108829000Y-87104000D02*
G01*
X107127000Y-87104000D01*
X107127000Y-86152000D01*
X108829000Y-86152000D01*
X108829000Y-87104000D01*
G37*
G36*
X154549000Y-87104000D02*
G01*
X152847000Y-87104000D01*
X152847000Y-86152000D01*
X154549000Y-86152000D01*
X154549000Y-87104000D01*
G37*
G36*
X112329000Y-87104000D02*
G01*
X110627000Y-87104000D01*
X110627000Y-86152000D01*
X112329000Y-86152000D01*
X112329000Y-87104000D01*
G37*
G36*
X165669000Y-87104000D02*
G01*
X163967000Y-87104000D01*
X163967000Y-86152000D01*
X165669000Y-86152000D01*
X165669000Y-87104000D01*
G37*
G36*
X97089000Y-87104000D02*
G01*
X95387000Y-87104000D01*
X95387000Y-86152000D01*
X97089000Y-86152000D01*
X97089000Y-87104000D01*
G37*
G36*
X177409000Y-87104000D02*
G01*
X175707000Y-87104000D01*
X175707000Y-86152000D01*
X177409000Y-86152000D01*
X177409000Y-87104000D01*
G37*
G36*
X93589000Y-87104000D02*
G01*
X91887000Y-87104000D01*
X91887000Y-86152000D01*
X93589000Y-86152000D01*
X93589000Y-87104000D01*
G37*
G36*
X162169000Y-87104000D02*
G01*
X160467000Y-87104000D01*
X160467000Y-86152000D01*
X162169000Y-86152000D01*
X162169000Y-87104000D01*
G37*
G36*
X142809000Y-87104000D02*
G01*
X141107000Y-87104000D01*
X141107000Y-86152000D01*
X142809000Y-86152000D01*
X142809000Y-87104000D01*
G37*
G36*
X180909000Y-87104000D02*
G01*
X179207000Y-87104000D01*
X179207000Y-86152000D01*
X180909000Y-86152000D01*
X180909000Y-87104000D01*
G37*
G36*
X173289000Y-87104000D02*
G01*
X171587000Y-87104000D01*
X171587000Y-86152000D01*
X173289000Y-86152000D01*
X173289000Y-87104000D01*
G37*
G36*
X127569000Y-87104000D02*
G01*
X125867000Y-87104000D01*
X125867000Y-86152000D01*
X127569000Y-86152000D01*
X127569000Y-87104000D01*
G37*
G36*
X124069000Y-87104000D02*
G01*
X122367000Y-87104000D01*
X122367000Y-86152000D01*
X124069000Y-86152000D01*
X124069000Y-87104000D01*
G37*
G36*
X104709000Y-87104000D02*
G01*
X103007000Y-87104000D01*
X103007000Y-86152000D01*
X104709000Y-86152000D01*
X104709000Y-87104000D01*
G37*
G36*
X101209000Y-87104000D02*
G01*
X99507000Y-87104000D01*
X99507000Y-86152000D01*
X101209000Y-86152000D01*
X101209000Y-87104000D01*
G37*
G36*
X101209000Y-83774000D02*
G01*
X99507000Y-83774000D01*
X99507000Y-82822000D01*
X101209000Y-82822000D01*
X101209000Y-83774000D01*
G37*
G36*
X139309000Y-83774000D02*
G01*
X137607000Y-83774000D01*
X137607000Y-82822000D01*
X139309000Y-82822000D01*
X139309000Y-83774000D01*
G37*
G36*
X104709000Y-83774000D02*
G01*
X103007000Y-83774000D01*
X103007000Y-82822000D01*
X104709000Y-82822000D01*
X104709000Y-83774000D01*
G37*
G36*
X150429000Y-83774000D02*
G01*
X148727000Y-83774000D01*
X148727000Y-82822000D01*
X150429000Y-82822000D01*
X150429000Y-83774000D01*
G37*
G36*
X196149000Y-83774000D02*
G01*
X194447000Y-83774000D01*
X194447000Y-82822000D01*
X196149000Y-82822000D01*
X196149000Y-83774000D01*
G37*
G36*
X192649000Y-83774000D02*
G01*
X190947000Y-83774000D01*
X190947000Y-82822000D01*
X192649000Y-82822000D01*
X192649000Y-83774000D01*
G37*
G36*
X188529000Y-83774000D02*
G01*
X186827000Y-83774000D01*
X186827000Y-82822000D01*
X188529000Y-82822000D01*
X188529000Y-83774000D01*
G37*
G36*
X185029000Y-83774000D02*
G01*
X183327000Y-83774000D01*
X183327000Y-82822000D01*
X185029000Y-82822000D01*
X185029000Y-83774000D01*
G37*
G36*
X180909000Y-83774000D02*
G01*
X179207000Y-83774000D01*
X179207000Y-82822000D01*
X180909000Y-82822000D01*
X180909000Y-83774000D01*
G37*
G36*
X177409000Y-83774000D02*
G01*
X175707000Y-83774000D01*
X175707000Y-82822000D01*
X177409000Y-82822000D01*
X177409000Y-83774000D01*
G37*
G36*
X173289000Y-83774000D02*
G01*
X171587000Y-83774000D01*
X171587000Y-82822000D01*
X173289000Y-82822000D01*
X173289000Y-83774000D01*
G37*
G36*
X169789000Y-83774000D02*
G01*
X168087000Y-83774000D01*
X168087000Y-82822000D01*
X169789000Y-82822000D01*
X169789000Y-83774000D01*
G37*
G36*
X165669000Y-83774000D02*
G01*
X163967000Y-83774000D01*
X163967000Y-82822000D01*
X165669000Y-82822000D01*
X165669000Y-83774000D01*
G37*
G36*
X162169000Y-83774000D02*
G01*
X160467000Y-83774000D01*
X160467000Y-82822000D01*
X162169000Y-82822000D01*
X162169000Y-83774000D01*
G37*
G36*
X158049000Y-83774000D02*
G01*
X156347000Y-83774000D01*
X156347000Y-82822000D01*
X158049000Y-82822000D01*
X158049000Y-83774000D01*
G37*
G36*
X154549000Y-83774000D02*
G01*
X152847000Y-83774000D01*
X152847000Y-82822000D01*
X154549000Y-82822000D01*
X154549000Y-83774000D01*
G37*
G36*
X146929000Y-83774000D02*
G01*
X145227000Y-83774000D01*
X145227000Y-82822000D01*
X146929000Y-82822000D01*
X146929000Y-83774000D01*
G37*
G36*
X142809000Y-83774000D02*
G01*
X141107000Y-83774000D01*
X141107000Y-82822000D01*
X142809000Y-82822000D01*
X142809000Y-83774000D01*
G37*
G36*
X135189000Y-83774000D02*
G01*
X133487000Y-83774000D01*
X133487000Y-82822000D01*
X135189000Y-82822000D01*
X135189000Y-83774000D01*
G37*
G36*
X131689000Y-83774000D02*
G01*
X129987000Y-83774000D01*
X129987000Y-82822000D01*
X131689000Y-82822000D01*
X131689000Y-83774000D01*
G37*
G36*
X127569000Y-83774000D02*
G01*
X125867000Y-83774000D01*
X125867000Y-82822000D01*
X127569000Y-82822000D01*
X127569000Y-83774000D01*
G37*
G36*
X124069000Y-83774000D02*
G01*
X122367000Y-83774000D01*
X122367000Y-82822000D01*
X124069000Y-82822000D01*
X124069000Y-83774000D01*
G37*
G36*
X119949000Y-83774000D02*
G01*
X118247000Y-83774000D01*
X118247000Y-82822000D01*
X119949000Y-82822000D01*
X119949000Y-83774000D01*
G37*
G36*
X116449000Y-83774000D02*
G01*
X114747000Y-83774000D01*
X114747000Y-82822000D01*
X116449000Y-82822000D01*
X116449000Y-83774000D01*
G37*
G36*
X112329000Y-83774000D02*
G01*
X110627000Y-83774000D01*
X110627000Y-82822000D01*
X112329000Y-82822000D01*
X112329000Y-83774000D01*
G37*
G36*
X108829000Y-83774000D02*
G01*
X107127000Y-83774000D01*
X107127000Y-82822000D01*
X108829000Y-82822000D01*
X108829000Y-83774000D01*
G37*
G36*
X97089000Y-83774000D02*
G01*
X95387000Y-83774000D01*
X95387000Y-82822000D01*
X97089000Y-82822000D01*
X97089000Y-83774000D01*
G37*
G36*
X93589000Y-83774000D02*
G01*
X91887000Y-83774000D01*
X91887000Y-82822000D01*
X93589000Y-82822000D01*
X93589000Y-83774000D01*
G37*
G36*
X89469000Y-83774000D02*
G01*
X87767000Y-83774000D01*
X87767000Y-82822000D01*
X89469000Y-82822000D01*
X89469000Y-83774000D01*
G37*
G36*
X85969000Y-83774000D02*
G01*
X84267000Y-83774000D01*
X84267000Y-82822000D01*
X85969000Y-82822000D01*
X85969000Y-83774000D01*
G37*
G36*
X81849000Y-83774000D02*
G01*
X80147000Y-83774000D01*
X80147000Y-82822000D01*
X81849000Y-82822000D01*
X81849000Y-83774000D01*
G37*
G36*
X78349000Y-83774000D02*
G01*
X76647000Y-83774000D01*
X76647000Y-82822000D01*
X78349000Y-82822000D01*
X78349000Y-83774000D01*
G37*
G36*
X119949000Y-82024000D02*
G01*
X118247000Y-82024000D01*
X118247000Y-81072000D01*
X119949000Y-81072000D01*
X119949000Y-82024000D01*
G37*
G36*
X116449000Y-82024000D02*
G01*
X114747000Y-82024000D01*
X114747000Y-81072000D01*
X116449000Y-81072000D01*
X116449000Y-82024000D01*
G37*
G36*
X112329000Y-82024000D02*
G01*
X110627000Y-82024000D01*
X110627000Y-81072000D01*
X112329000Y-81072000D01*
X112329000Y-82024000D01*
G37*
G36*
X108829000Y-82024000D02*
G01*
X107127000Y-82024000D01*
X107127000Y-81072000D01*
X108829000Y-81072000D01*
X108829000Y-82024000D01*
G37*
G36*
X104709000Y-82024000D02*
G01*
X103007000Y-82024000D01*
X103007000Y-81072000D01*
X104709000Y-81072000D01*
X104709000Y-82024000D01*
G37*
G36*
X101209000Y-82024000D02*
G01*
X99507000Y-82024000D01*
X99507000Y-81072000D01*
X101209000Y-81072000D01*
X101209000Y-82024000D01*
G37*
G36*
X97089000Y-82024000D02*
G01*
X95387000Y-82024000D01*
X95387000Y-81072000D01*
X97089000Y-81072000D01*
X97089000Y-82024000D01*
G37*
G36*
X93589000Y-82024000D02*
G01*
X91887000Y-82024000D01*
X91887000Y-81072000D01*
X93589000Y-81072000D01*
X93589000Y-82024000D01*
G37*
G36*
X124069000Y-82024000D02*
G01*
X122367000Y-82024000D01*
X122367000Y-81072000D01*
X124069000Y-81072000D01*
X124069000Y-82024000D01*
G37*
G36*
X127569000Y-82024000D02*
G01*
X125867000Y-82024000D01*
X125867000Y-81072000D01*
X127569000Y-81072000D01*
X127569000Y-82024000D01*
G37*
G36*
X89469000Y-82024000D02*
G01*
X87767000Y-82024000D01*
X87767000Y-81072000D01*
X89469000Y-81072000D01*
X89469000Y-82024000D01*
G37*
G36*
X85969000Y-82024000D02*
G01*
X84267000Y-82024000D01*
X84267000Y-81072000D01*
X85969000Y-81072000D01*
X85969000Y-82024000D01*
G37*
G36*
X81849000Y-82024000D02*
G01*
X80147000Y-82024000D01*
X80147000Y-81072000D01*
X81849000Y-81072000D01*
X81849000Y-82024000D01*
G37*
G36*
X131689000Y-82024000D02*
G01*
X129987000Y-82024000D01*
X129987000Y-81072000D01*
X131689000Y-81072000D01*
X131689000Y-82024000D01*
G37*
G36*
X135189000Y-82024000D02*
G01*
X133487000Y-82024000D01*
X133487000Y-81072000D01*
X135189000Y-81072000D01*
X135189000Y-82024000D01*
G37*
G36*
X78349000Y-82024000D02*
G01*
X76647000Y-82024000D01*
X76647000Y-81072000D01*
X78349000Y-81072000D01*
X78349000Y-82024000D01*
G37*
G36*
X142809000Y-82024000D02*
G01*
X141107000Y-82024000D01*
X141107000Y-81072000D01*
X142809000Y-81072000D01*
X142809000Y-82024000D01*
G37*
G36*
X192649000Y-82024000D02*
G01*
X190947000Y-82024000D01*
X190947000Y-81072000D01*
X192649000Y-81072000D01*
X192649000Y-82024000D01*
G37*
G36*
X139309000Y-82024000D02*
G01*
X137607000Y-82024000D01*
X137607000Y-81072000D01*
X139309000Y-81072000D01*
X139309000Y-82024000D01*
G37*
G36*
X196149000Y-82024000D02*
G01*
X194447000Y-82024000D01*
X194447000Y-81072000D01*
X196149000Y-81072000D01*
X196149000Y-82024000D01*
G37*
G36*
X185029000Y-82024000D02*
G01*
X183327000Y-82024000D01*
X183327000Y-81072000D01*
X185029000Y-81072000D01*
X185029000Y-82024000D01*
G37*
G36*
X146929000Y-82024000D02*
G01*
X145227000Y-82024000D01*
X145227000Y-81072000D01*
X146929000Y-81072000D01*
X146929000Y-82024000D01*
G37*
G36*
X188529000Y-82024000D02*
G01*
X186827000Y-82024000D01*
X186827000Y-81072000D01*
X188529000Y-81072000D01*
X188529000Y-82024000D01*
G37*
G36*
X150429000Y-82024000D02*
G01*
X148727000Y-82024000D01*
X148727000Y-81072000D01*
X150429000Y-81072000D01*
X150429000Y-82024000D01*
G37*
G36*
X154549000Y-82024000D02*
G01*
X152847000Y-82024000D01*
X152847000Y-81072000D01*
X154549000Y-81072000D01*
X154549000Y-82024000D01*
G37*
G36*
X158049000Y-82024000D02*
G01*
X156347000Y-82024000D01*
X156347000Y-81072000D01*
X158049000Y-81072000D01*
X158049000Y-82024000D01*
G37*
G36*
X177409000Y-82024000D02*
G01*
X175707000Y-82024000D01*
X175707000Y-81072000D01*
X177409000Y-81072000D01*
X177409000Y-82024000D01*
G37*
G36*
X162169000Y-82024000D02*
G01*
X160467000Y-82024000D01*
X160467000Y-81072000D01*
X162169000Y-81072000D01*
X162169000Y-82024000D01*
G37*
G36*
X180909000Y-82024000D02*
G01*
X179207000Y-82024000D01*
X179207000Y-81072000D01*
X180909000Y-81072000D01*
X180909000Y-82024000D01*
G37*
G36*
X165669000Y-82024000D02*
G01*
X163967000Y-82024000D01*
X163967000Y-81072000D01*
X165669000Y-81072000D01*
X165669000Y-82024000D01*
G37*
G36*
X169789000Y-82024000D02*
G01*
X168087000Y-82024000D01*
X168087000Y-81072000D01*
X169789000Y-81072000D01*
X169789000Y-82024000D01*
G37*
G36*
X173289000Y-82024000D02*
G01*
X171587000Y-82024000D01*
X171587000Y-81072000D01*
X173289000Y-81072000D01*
X173289000Y-82024000D01*
G37*
G36*
X70356487Y-79266996D02*
G01*
X70593253Y-79365068D01*
X70593255Y-79365069D01*
X70806339Y-79507447D01*
X70987553Y-79688661D01*
X71129932Y-79901747D01*
X71228004Y-80138513D01*
X71278000Y-80389861D01*
X71278000Y-80646139D01*
X71228004Y-80897487D01*
X71155718Y-81072000D01*
X71129931Y-81134255D01*
X70987553Y-81347339D01*
X70806339Y-81528553D01*
X70593255Y-81670931D01*
X70593254Y-81670932D01*
X70593253Y-81670932D01*
X70356487Y-81769004D01*
X70105139Y-81819000D01*
X69848861Y-81819000D01*
X69597513Y-81769004D01*
X69360747Y-81670932D01*
X69360746Y-81670932D01*
X69360745Y-81670931D01*
X69147661Y-81528553D01*
X68966447Y-81347339D01*
X68824069Y-81134255D01*
X68798282Y-81072000D01*
X68725996Y-80897487D01*
X68676000Y-80646139D01*
X68676000Y-80389861D01*
X68725996Y-80138513D01*
X68824068Y-79901747D01*
X68966447Y-79688661D01*
X69147661Y-79507447D01*
X69360745Y-79365069D01*
X69360747Y-79365068D01*
X69597513Y-79266996D01*
X69848861Y-79217000D01*
X70105139Y-79217000D01*
X70356487Y-79266996D01*
G37*
G36*
X200912487Y-79266996D02*
G01*
X201149253Y-79365068D01*
X201149255Y-79365069D01*
X201362339Y-79507447D01*
X201543553Y-79688661D01*
X201685932Y-79901747D01*
X201784004Y-80138513D01*
X201834000Y-80389861D01*
X201834000Y-80646139D01*
X201784004Y-80897487D01*
X201711718Y-81072000D01*
X201685931Y-81134255D01*
X201543553Y-81347339D01*
X201362339Y-81528553D01*
X201149255Y-81670931D01*
X201149254Y-81670932D01*
X201149253Y-81670932D01*
X200912487Y-81769004D01*
X200661139Y-81819000D01*
X200404861Y-81819000D01*
X200153513Y-81769004D01*
X199916747Y-81670932D01*
X199916746Y-81670932D01*
X199916745Y-81670931D01*
X199703661Y-81528553D01*
X199522447Y-81347339D01*
X199380069Y-81134255D01*
X199354282Y-81072000D01*
X199281996Y-80897487D01*
X199232000Y-80646139D01*
X199232000Y-80389861D01*
X199281996Y-80138513D01*
X199380068Y-79901747D01*
X199522447Y-79688661D01*
X199703661Y-79507447D01*
X199916745Y-79365069D01*
X199916747Y-79365068D01*
X200153513Y-79266996D01*
X200404861Y-79217000D01*
X200661139Y-79217000D01*
X200912487Y-79266996D01*
G37*
M02*
