G04 #@! TF.GenerationSoftware,KiCad,Pcbnew,(5.1.5-0-10_14)*
G04 #@! TF.CreationDate,2020-01-20T13:36:02-08:00*
G04 #@! TF.ProjectId,SpectrumAnayzerMini,53706563-7472-4756-9d41-6e61797a6572,rev?*
G04 #@! TF.SameCoordinates,Original*
G04 #@! TF.FileFunction,Soldermask,Bot*
G04 #@! TF.FilePolarity,Negative*
%FSLAX46Y46*%
G04 Gerber Fmt 4.6, Leading zero omitted, Abs format (unit mm)*
G04 Created by KiCad (PCBNEW (5.1.5-0-10_14)) date 2020-01-20 13:36:02*
%MOMM*%
%LPD*%
G04 APERTURE LIST*
%ADD10C,0.100000*%
G04 APERTURE END LIST*
D10*
G36*
X200912487Y-128288996D02*
G01*
X201149253Y-128387068D01*
X201149255Y-128387069D01*
X201253407Y-128456661D01*
X201362339Y-128529447D01*
X201543553Y-128710661D01*
X201685932Y-128923747D01*
X201784004Y-129160513D01*
X201834000Y-129411861D01*
X201834000Y-129668139D01*
X201784004Y-129919487D01*
X201702879Y-130115339D01*
X201685931Y-130156255D01*
X201543553Y-130369339D01*
X201362339Y-130550553D01*
X201149255Y-130692931D01*
X201149254Y-130692932D01*
X201149253Y-130692932D01*
X200912487Y-130791004D01*
X200661139Y-130841000D01*
X200404861Y-130841000D01*
X200153513Y-130791004D01*
X199916747Y-130692932D01*
X199916746Y-130692932D01*
X199916745Y-130692931D01*
X199703661Y-130550553D01*
X199522447Y-130369339D01*
X199380069Y-130156255D01*
X199363121Y-130115339D01*
X199281996Y-129919487D01*
X199232000Y-129668139D01*
X199232000Y-129411861D01*
X199281996Y-129160513D01*
X199380068Y-128923747D01*
X199522447Y-128710661D01*
X199703661Y-128529447D01*
X199812593Y-128456661D01*
X199916745Y-128387069D01*
X199916747Y-128387068D01*
X200153513Y-128288996D01*
X200404861Y-128239000D01*
X200661139Y-128239000D01*
X200912487Y-128288996D01*
G37*
G36*
X70483487Y-128034996D02*
G01*
X70720253Y-128133068D01*
X70720255Y-128133069D01*
X70878792Y-128239000D01*
X70933339Y-128275447D01*
X71114553Y-128456661D01*
X71256932Y-128669747D01*
X71355004Y-128906513D01*
X71405000Y-129157861D01*
X71405000Y-129414139D01*
X71355004Y-129665487D01*
X71256932Y-129902253D01*
X71256931Y-129902255D01*
X71114553Y-130115339D01*
X70933339Y-130296553D01*
X70720255Y-130438931D01*
X70720254Y-130438932D01*
X70720253Y-130438932D01*
X70483487Y-130537004D01*
X70232139Y-130587000D01*
X69975861Y-130587000D01*
X69724513Y-130537004D01*
X69487747Y-130438932D01*
X69487746Y-130438932D01*
X69487745Y-130438931D01*
X69274661Y-130296553D01*
X69093447Y-130115339D01*
X68951069Y-129902255D01*
X68951068Y-129902253D01*
X68852996Y-129665487D01*
X68803000Y-129414139D01*
X68803000Y-129157861D01*
X68852996Y-128906513D01*
X68951068Y-128669747D01*
X69093447Y-128456661D01*
X69274661Y-128275447D01*
X69329208Y-128239000D01*
X69487745Y-128133069D01*
X69487747Y-128133068D01*
X69724513Y-128034996D01*
X69975861Y-127985000D01*
X70232139Y-127985000D01*
X70483487Y-128034996D01*
G37*
G36*
X199757512Y-122674927D02*
G01*
X199906812Y-122704624D01*
X200070784Y-122772544D01*
X200218354Y-122871147D01*
X200343853Y-122996646D01*
X200442456Y-123144216D01*
X200510376Y-123308188D01*
X200545000Y-123482259D01*
X200545000Y-123659741D01*
X200510376Y-123833812D01*
X200442456Y-123997784D01*
X200343853Y-124145354D01*
X200218354Y-124270853D01*
X200070784Y-124369456D01*
X199906812Y-124437376D01*
X199757512Y-124467073D01*
X199732742Y-124472000D01*
X199555258Y-124472000D01*
X199530488Y-124467073D01*
X199381188Y-124437376D01*
X199217216Y-124369456D01*
X199069646Y-124270853D01*
X198944147Y-124145354D01*
X198845544Y-123997784D01*
X198777624Y-123833812D01*
X198743000Y-123659741D01*
X198743000Y-123482259D01*
X198777624Y-123308188D01*
X198845544Y-123144216D01*
X198944147Y-122996646D01*
X199069646Y-122871147D01*
X199217216Y-122772544D01*
X199381188Y-122704624D01*
X199530488Y-122674927D01*
X199555258Y-122670000D01*
X199732742Y-122670000D01*
X199757512Y-122674927D01*
G37*
G36*
X199757512Y-120134927D02*
G01*
X199906812Y-120164624D01*
X200070784Y-120232544D01*
X200218354Y-120331147D01*
X200343853Y-120456646D01*
X200442456Y-120604216D01*
X200510376Y-120768188D01*
X200545000Y-120942259D01*
X200545000Y-121119741D01*
X200510376Y-121293812D01*
X200442456Y-121457784D01*
X200343853Y-121605354D01*
X200218354Y-121730853D01*
X200070784Y-121829456D01*
X199906812Y-121897376D01*
X199757512Y-121927073D01*
X199732742Y-121932000D01*
X199555258Y-121932000D01*
X199530488Y-121927073D01*
X199381188Y-121897376D01*
X199217216Y-121829456D01*
X199069646Y-121730853D01*
X198944147Y-121605354D01*
X198845544Y-121457784D01*
X198777624Y-121293812D01*
X198743000Y-121119741D01*
X198743000Y-120942259D01*
X198777624Y-120768188D01*
X198845544Y-120604216D01*
X198944147Y-120456646D01*
X199069646Y-120331147D01*
X199217216Y-120232544D01*
X199381188Y-120164624D01*
X199530488Y-120134927D01*
X199555258Y-120130000D01*
X199732742Y-120130000D01*
X199757512Y-120134927D01*
G37*
G36*
X200545000Y-119392000D02*
G01*
X198743000Y-119392000D01*
X198743000Y-117590000D01*
X200545000Y-117590000D01*
X200545000Y-119392000D01*
G37*
G36*
X71368228Y-101884703D02*
G01*
X71523100Y-101948853D01*
X71662481Y-102041985D01*
X71781015Y-102160519D01*
X71874147Y-102299900D01*
X71938297Y-102454772D01*
X71971000Y-102619184D01*
X71971000Y-102786816D01*
X71938297Y-102951228D01*
X71874147Y-103106100D01*
X71781015Y-103245481D01*
X71662481Y-103364015D01*
X71523100Y-103457147D01*
X71368228Y-103521297D01*
X71203816Y-103554000D01*
X71036184Y-103554000D01*
X70871772Y-103521297D01*
X70716900Y-103457147D01*
X70577519Y-103364015D01*
X70458985Y-103245481D01*
X70365853Y-103106100D01*
X70301703Y-102951228D01*
X70269000Y-102786816D01*
X70269000Y-102619184D01*
X70301703Y-102454772D01*
X70365853Y-102299900D01*
X70458985Y-102160519D01*
X70577519Y-102041985D01*
X70716900Y-101948853D01*
X70871772Y-101884703D01*
X71036184Y-101852000D01*
X71203816Y-101852000D01*
X71368228Y-101884703D01*
G37*
G36*
X71971000Y-101054000D02*
G01*
X70269000Y-101054000D01*
X70269000Y-99352000D01*
X71971000Y-99352000D01*
X71971000Y-101054000D01*
G37*
G36*
X72021000Y-95008000D02*
G01*
X70219000Y-95008000D01*
X70219000Y-93206000D01*
X72021000Y-93206000D01*
X72021000Y-95008000D01*
G37*
G36*
X71233512Y-90670927D02*
G01*
X71382812Y-90700624D01*
X71546784Y-90768544D01*
X71694354Y-90867147D01*
X71819853Y-90992646D01*
X71918456Y-91140216D01*
X71986376Y-91304188D01*
X72021000Y-91478259D01*
X72021000Y-91655741D01*
X71986376Y-91829812D01*
X71918456Y-91993784D01*
X71819853Y-92141354D01*
X71694354Y-92266853D01*
X71546784Y-92365456D01*
X71382812Y-92433376D01*
X71233512Y-92463073D01*
X71208742Y-92468000D01*
X71031258Y-92468000D01*
X71006488Y-92463073D01*
X70857188Y-92433376D01*
X70693216Y-92365456D01*
X70545646Y-92266853D01*
X70420147Y-92141354D01*
X70321544Y-91993784D01*
X70253624Y-91829812D01*
X70219000Y-91655741D01*
X70219000Y-91478259D01*
X70253624Y-91304188D01*
X70321544Y-91140216D01*
X70420147Y-90992646D01*
X70545646Y-90867147D01*
X70693216Y-90768544D01*
X70857188Y-90700624D01*
X71006488Y-90670927D01*
X71031258Y-90666000D01*
X71208742Y-90666000D01*
X71233512Y-90670927D01*
G37*
G36*
X71233512Y-88130927D02*
G01*
X71382812Y-88160624D01*
X71546784Y-88228544D01*
X71694354Y-88327147D01*
X71819853Y-88452646D01*
X71918456Y-88600216D01*
X71986376Y-88764188D01*
X72021000Y-88938259D01*
X72021000Y-89115741D01*
X71986376Y-89289812D01*
X71918456Y-89453784D01*
X71819853Y-89601354D01*
X71694354Y-89726853D01*
X71546784Y-89825456D01*
X71382812Y-89893376D01*
X71233512Y-89923073D01*
X71208742Y-89928000D01*
X71031258Y-89928000D01*
X71006488Y-89923073D01*
X70857188Y-89893376D01*
X70693216Y-89825456D01*
X70545646Y-89726853D01*
X70420147Y-89601354D01*
X70321544Y-89453784D01*
X70253624Y-89289812D01*
X70219000Y-89115741D01*
X70219000Y-88938259D01*
X70253624Y-88764188D01*
X70321544Y-88600216D01*
X70420147Y-88452646D01*
X70545646Y-88327147D01*
X70693216Y-88228544D01*
X70857188Y-88160624D01*
X71006488Y-88130927D01*
X71031258Y-88126000D01*
X71208742Y-88126000D01*
X71233512Y-88130927D01*
G37*
G36*
X200912487Y-79266996D02*
G01*
X201149253Y-79365068D01*
X201149255Y-79365069D01*
X201362339Y-79507447D01*
X201543553Y-79688661D01*
X201685932Y-79901747D01*
X201784004Y-80138513D01*
X201834000Y-80389861D01*
X201834000Y-80646139D01*
X201784004Y-80897487D01*
X201685932Y-81134253D01*
X201685931Y-81134255D01*
X201543553Y-81347339D01*
X201362339Y-81528553D01*
X201149255Y-81670931D01*
X201149254Y-81670932D01*
X201149253Y-81670932D01*
X200912487Y-81769004D01*
X200661139Y-81819000D01*
X200404861Y-81819000D01*
X200153513Y-81769004D01*
X199916747Y-81670932D01*
X199916746Y-81670932D01*
X199916745Y-81670931D01*
X199703661Y-81528553D01*
X199522447Y-81347339D01*
X199380069Y-81134255D01*
X199380068Y-81134253D01*
X199281996Y-80897487D01*
X199232000Y-80646139D01*
X199232000Y-80389861D01*
X199281996Y-80138513D01*
X199380068Y-79901747D01*
X199522447Y-79688661D01*
X199703661Y-79507447D01*
X199916745Y-79365069D01*
X199916747Y-79365068D01*
X200153513Y-79266996D01*
X200404861Y-79217000D01*
X200661139Y-79217000D01*
X200912487Y-79266996D01*
G37*
G36*
X70356487Y-79266996D02*
G01*
X70593253Y-79365068D01*
X70593255Y-79365069D01*
X70806339Y-79507447D01*
X70987553Y-79688661D01*
X71129932Y-79901747D01*
X71228004Y-80138513D01*
X71278000Y-80389861D01*
X71278000Y-80646139D01*
X71228004Y-80897487D01*
X71129932Y-81134253D01*
X71129931Y-81134255D01*
X70987553Y-81347339D01*
X70806339Y-81528553D01*
X70593255Y-81670931D01*
X70593254Y-81670932D01*
X70593253Y-81670932D01*
X70356487Y-81769004D01*
X70105139Y-81819000D01*
X69848861Y-81819000D01*
X69597513Y-81769004D01*
X69360747Y-81670932D01*
X69360746Y-81670932D01*
X69360745Y-81670931D01*
X69147661Y-81528553D01*
X68966447Y-81347339D01*
X68824069Y-81134255D01*
X68824068Y-81134253D01*
X68725996Y-80897487D01*
X68676000Y-80646139D01*
X68676000Y-80389861D01*
X68725996Y-80138513D01*
X68824068Y-79901747D01*
X68966447Y-79688661D01*
X69147661Y-79507447D01*
X69360745Y-79365069D01*
X69360747Y-79365068D01*
X69597513Y-79266996D01*
X69848861Y-79217000D01*
X70105139Y-79217000D01*
X70356487Y-79266996D01*
G37*
M02*
